<?xml version="1.0" standalone="no"?>
  <!DOCTYPE svg PUBLIC "-//W3C//DTD SVG 1.1//EN" "http://www.w3.org/Graphics/SVG/1.1/DTD/svg11.dtd" >
  <svg>
  <metadata>
  Created by font-carrier
  </metadata>
  <defs>
  <font id="Impact" horiz-adv-x="2630" vert-adv-y="2630" >
    <font-face
      
      font-family="Impact"
      
      font-weight="400"
      
      font-stretch="normal"
      
      units-per-em="2048"
      
      ascent="2066"
      
      descent="-432"
      
    />
      <missing-glyph />

      

      
      <glyph glyph-name="uni21" unicode="&#x21;" d="M516 1619L450 400L138 400L72 1619L516 1619M483 324L483 0L105 0L105 324L483 324Z"  horiz-adv-x="553" vert-adv-y="2048"  />

      
      <glyph glyph-name="uni22" unicode="&#x22;" d="M89 1098L36 1371L36 1619L342 1619L342 1371L296 1098L89 1098M468 1098L415 1371L415 1619L721 1619L721 1371L674 1098L468 1098Z"  horiz-adv-x="757" vert-adv-y="2048"  />

      
      <glyph glyph-name="uni23" unicode="&#x23;" d="M36 1061L344 1061L428 1444L617 1444L533 1061L888 1061L970 1444L1159 1444L1077 1061L1247 1061L1247 871L1041 871L978 569L1247 569L1247 380L942 380L860 0L670 0L753 380L394 380L316 0L125 0L206 380L36 380L36 569L245 569L308 871L36 871L36 1061M497 871L434 570L790 570L852 871L497 871Z"  horiz-adv-x="1283" vert-adv-y="2048"  />

      
      <glyph glyph-name="uni24" unicode="&#x24;" d="M1019 1147L615 1147L615 1214Q615 1321 601 1354Q587 1387 541 1387Q504 1387 485.50 1358.50Q467 1330 467 1273Q467 1178 505 1140Q542 1102 723 992Q877 899 933 849.50Q989 800 1027.50 709.50Q1066 619 1066 484Q1066 268 962 145Q858 22 650-7L650-159L464-159L464-2Q302 14 181 122.50Q60 231 60 501L60 580L464 580L464 481Q464 318 476.50 278.50Q489 239 537 239Q578 239 598 266.50Q618 294 618 348Q618 484 599 542.50Q580 601 469 670Q284 786 217.50 840.50Q151 895 102.50 994Q54 1093 54 1218Q54 1399 156.50 1502Q259 1605 464 1629L464 1758L650 1758L650 1629Q837 1605 930 1503.50Q1023 1402 1023 1223Q1023 1198 1019 1147Z"  horiz-adv-x="1121" vert-adv-y="2048"  />

      
      <glyph glyph-name="uni25" unicode="&#x25;" d="M1103 1650L470-31L316-31L951 1650L1103 1650M632 1343L632 1065Q632 956 611.50 901.50Q591 847 523.50 806.50Q456 766 345 766Q217 766 150 804.50Q83 843 59.50 897Q36 951 36 1052L36 1343Q36 1463 60.50 1520.50Q85 1578 155 1614Q225 1650 328 1650Q442 1650 513 1610.50Q584 1571 608 1515Q632 1459 632 1343M376 1414Q376 1478 369.50 1493Q363 1508 334 1508Q307 1508 299 1492Q291 1476 291 1414L291 1006Q291 936 298 922Q305 908 335 908Q361 908 368.50 924Q376 940 376 999L376 1414M1383 561L1383 282Q1383 174 1362.50 119Q1342 64 1274.50 23.50Q1207-17 1096-17Q969-17 901.50 22Q834 61 810.50 115Q787 169 787 269L787 561Q787 680 811.50 737.50Q836 795 906 831.50Q976 868 1079 868Q1194 868 1265 828Q1336 788 1359.50 732Q1383 676 1383 561M1127 631Q1127 695 1120.50 710.50Q1114 726 1085 726Q1058 726 1050.50 710Q1043 694 1043 631L1043 223Q1043 154 1050 140Q1057 126 1086 126Q1113 126 1120 141.50Q1127 157 1127 217L1127 631Z"  horiz-adv-x="1419" vert-adv-y="2048"  />

      
      <glyph glyph-name="uni26" unicode="&#x26;" d="M1152 615L1152 342L1038 270L1180 0L807 0L758 90Q570-34 402-34Q226-34 131 83Q36 200 36 365Q36 497 92 572Q148 647 260 694Q100 809 100 1005Q100 1174 214 1277Q328 1380 528 1380Q708 1380 811.50 1279Q915 1178 915 1022Q915 858 789 731L932 473L1152 615M529 899Q597 988 597 1069Q597 1104 577 1133Q557 1162 521 1162Q488 1162 471 1140Q454 1118 454 1073Q454 979 529 899M620 273L489 491Q414 423 414 344Q414 287 437.50 258.50Q461 230 507 230Q556 230 620 273Z"  horiz-adv-x="1180" vert-adv-y="2048"  />

      
      <glyph glyph-name="uni27" unicode="&#x27;" d="M89 1098L36 1371L36 1619L342 1619L342 1371L296 1098L89 1098Z"  horiz-adv-x="379" vert-adv-y="2048"  />

      
      <glyph glyph-name="uni28" unicode="&#x28;" d="M605 1619L605 1408Q522 1408 497.50 1401Q473 1394 461.50 1368.50Q450 1343 450 1224L450 395Q450 284 459 256.50Q468 229 492.50 220Q517 211 605 211L605 0L478 0Q302 0 219.50 32.50Q137 65 110.50 128Q84 191 84 396L84 1223Q84 1427 110 1491Q136 1555 221 1587Q306 1619 478 1619L605 1619Z"  horiz-adv-x="642" vert-adv-y="2048"  />

      
      <glyph glyph-name="uni29" unicode="&#x29;" d="M36 1619L163 1619Q335 1619 420 1587Q505 1555 531 1491Q557 1427 557 1223L557 396Q557 191 531 128Q505 65 422 32.50Q339 0 163 0L36 0L36 211Q125 211 149 220Q173 229 182.50 256.50Q192 284 192 395L192 1224Q192 1343 180 1368.50Q168 1394 143.50 1401Q119 1408 36 1408L36 1619Z"  horiz-adv-x="642" vert-adv-y="2048"  />

      
      <glyph glyph-name="uni2a" unicode="&#x2a;" d="M352 1619L352 1458L500 1509L545 1391L397 1329L490 1197L390 1123L289 1256L190 1123L85 1197L179 1334L30 1391L73 1509L226 1458L226 1619L352 1619Z"  horiz-adv-x="575" vert-adv-y="2048"  />

      
      <glyph glyph-name="uni2b" unicode="&#x2b;" d="M64 930L423 930L423 1290L667 1290L667 930L1028 930L1028 686L667 686L667 328L423 328L423 686L64 686L64 930Z"  horiz-adv-x="1092" vert-adv-y="2048"  />

      
      <glyph glyph-name="uni2c" unicode="&#x2c;" d="M307 317L307 172Q307 58 280-15Q253-88 186.50-139Q120-190 36-207L36-91Q96-57 104 0L36 0L36 317L307 317Z"  horiz-adv-x="344" vert-adv-y="2048"  />

      
      <glyph glyph-name="uni2d" unicode="&#x2d;" d="M567 803L567 524L36 524L36 803L567 803Z"  horiz-adv-x="603" vert-adv-y="2048"  />

      
      <glyph glyph-name="uniad" unicode="&#xad;" d="M567 803L567 524L36 524L36 803L567 803Z"  horiz-adv-x="603" vert-adv-y="2048"  />

      
      <glyph glyph-name="uni2e" unicode="&#x2e;" d="M341 330L341 0L36 0L36 330L341 330Z"  horiz-adv-x="378" vert-adv-y="2048"  />

      
      <glyph glyph-name="uni2f" unicode="&#x2f;" d="M798 1650L318-31L12-31L495 1650L798 1650Z"  horiz-adv-x="810" vert-adv-y="2048"  />

      
      <glyph glyph-name="uni30" unicode="&#x30;" d="M1025 1071L1025 531Q1025 347 1005 263Q985 179 922 106Q859 33 770 1Q681-31 571-31Q426-31 330 2.50Q234 36 177 107Q120 178 96 256.50Q72 335 72 506L72 1071Q72 1294 110.50 1405Q149 1516 263.50 1583Q378 1650 541 1650Q674 1650 779 1603.50Q884 1557 936 1490Q988 1423 1006.50 1339Q1025 1255 1025 1071M621 1207Q621 1336 608.50 1368.50Q596 1401 550 1401Q505 1401 490.50 1366.50Q476 1332 476 1207L476 417Q476 276 489.50 247Q503 218 548 218Q593 218 607 252Q621 286 621 405L621 1207Z"  horiz-adv-x="1098" vert-adv-y="2048"  />

      
      <glyph glyph-name="uni31" unicode="&#x31;" d="M695 1619L695 0L291 0L291 868Q291 1056 282 1094Q273 1132 232.50 1151.50Q192 1171 52 1171L12 1171L12 1360Q305 1423 457 1619L695 1619Z"  horiz-adv-x="780" vert-adv-y="2048"  />

      
      <glyph glyph-name="uni32" unicode="&#x32;" d="M943 276L943 0L54 0L54 231Q449 877 523.50 1030.50Q598 1184 598 1270Q598 1336 575.50 1368.50Q553 1401 507 1401Q461 1401 438.50 1365Q416 1329 416 1222L416 1068L54 1068L54 1127Q54 1263 68 1341.50Q82 1420 137 1496Q192 1572 280 1611Q368 1650 491 1650Q732 1650 855.50 1530.50Q979 1411 979 1228Q979 1089 909.50 934Q840 779 500 276L943 276Z"  horiz-adv-x="1028" vert-adv-y="2048"  />

      
      <glyph glyph-name="uni33" unicode="&#x33;" d="M831 917Q923 886 968 815.50Q1013 745 1013 485Q1013 292 969 185.50Q925 79 817 23.50Q709-32 540-32Q348-32 238.50 32.50Q129 97 94.50 190.50Q60 284 60 515L60 643L464 643L464 380Q464 275 476.50 246.50Q489 218 532 218Q579 218 594 254Q609 290 609 442L609 554Q609 647 588 690Q567 733 526 746.50Q485 760 367 762L367 997Q511 997 545 1008Q579 1019 594 1056Q609 1093 609 1172L609 1262Q609 1347 591.50 1374Q574 1401 537 1401Q495 1401 479.50 1372.50Q464 1344 464 1251L464 1118L60 1118L60 1256Q60 1488 166 1569.50Q272 1651 503 1651Q792 1651 895 1538Q998 1425 998 1224Q998 1088 961 1027.50Q924 967 831 917Z"  horiz-adv-x="1086" vert-adv-y="2048"  />

      
      <glyph glyph-name="uni34" unicode="&#x34;" d="M896 1619L896 561L1011 561L1011 285L896 285L896 0L492 0L492 285L12 285L12 561L361 1619L896 1619M492 561L492 1250L314 561L492 561Z"  horiz-adv-x="1023" vert-adv-y="2048"  />

      
      <glyph glyph-name="uni35" unicode="&#x35;" d="M954 1619L954 1360L453 1360L453 1085Q547 1196 695 1196Q862 1196 947.50 1102.50Q1033 1009 1033 743L1033 512Q1033 340 1016.50 259.50Q1000 179 946 110.50Q892 42 795.50 5.50Q699-31 560-31Q404-31 285 23.50Q166 78 116 186Q66 294 66 520L66 608L470 608L470 507Q470 350 481 284Q492 218 557 218Q587 218 605.50 237Q624 256 625.50 278Q627 300 629 469L629 790Q629 881 610 914Q591 947 547 947Q519 947 500 930Q481 913 475.50 893.50Q470 874 470 803L70 803L87 1619L954 1619Z"  horiz-adv-x="1099" vert-adv-y="2048"  />

      
      <glyph glyph-name="uni36" unicode="&#x36;" d="M1042 1189L638 1189Q638 1302 635.50 1331.50Q633 1361 611.50 1381Q590 1401 553 1401Q522 1401 502 1382Q482 1363 479 1333Q476 1303 476 1212L476 954Q507 1019 567 1051.50Q627 1084 715 1084Q826 1084 911 1024Q996 964 1019 880Q1042 796 1042 653L1042 524Q1042 354 1029 271Q1016 188 959.50 117.50Q903 47 804.50 8Q706-31 575-31Q412-31 308 14Q204 59 147.50 143.50Q91 228 81.50 321Q72 414 72 682L72 906Q72 1195 80.50 1292.50Q89 1390 150 1477Q211 1564 316.50 1607.50Q422 1651 560 1651Q730 1651 839 1596Q948 1541 995 1441Q1042 1341 1042 1189M638 684Q638 770 619 802Q600 834 557 834Q515 834 495.50 803.50Q476 773 476 684L476 391Q476 284 494.50 251Q513 218 556 218Q582 218 610 243.50Q638 269 638 381L638 684Z"  horiz-adv-x="1109" vert-adv-y="2048"  />

      
      <glyph glyph-name="uni37" unicode="&#x37;" d="M784 1619L784 1266L526 0L124 0L411 1328L12 1328L12 1619L784 1619Z"  horiz-adv-x="802" vert-adv-y="2048"  />

      
      <glyph glyph-name="uni38" unicode="&#x38;" d="M843 918Q932 882 980 810.50Q1028 739 1028 470Q1028 274 990 181Q952 88 842 28.50Q732-31 547-31Q367-31 262 26Q157 83 111.50 177Q66 271 66 490Q66 637 88.50 745Q111 853 230 918Q155 954 117.50 1032.50Q80 1111 80 1232Q80 1441 196 1545.50Q312 1650 543 1650Q810 1650 912 1539Q1014 1428 1014 1222Q1014 1091 980.50 1033Q947 975 843 918M616 1266Q616 1348 601.50 1374.50Q587 1401 546 1401Q506 1401 492 1372.50Q478 1344 478 1266L478 1143Q478 1070 494 1042Q510 1014 548 1014Q588 1014 602 1041.50Q616 1069 616 1155L616 1266M624 593Q624 686 605 716.50Q586 747 545 747Q505 747 487.50 717.50Q470 688 470 593L470 383Q470 278 489.50 248Q509 218 551 218Q594 218 609 248.50Q624 279 624 386L624 593Z"  horiz-adv-x="1095" vert-adv-y="2048"  />

      
      <glyph glyph-name="uni39" unicode="&#x39;" d="M72 430L476 430Q476 317 479 287.50Q482 258 503.50 238Q525 218 562 218Q593 218 613 237Q633 256 635.50 286Q638 316 638 407L638 665Q608 600 548 567.50Q488 535 399 535Q288 535 203 595Q118 655 95 739Q72 823 72 966L72 1095Q72 1265 85.50 1348Q99 1431 155 1501.50Q211 1572 310 1611Q409 1650 540 1650Q702 1650 806 1605Q910 1560 967 1475.50Q1024 1391 1033 1298Q1042 1205 1042 938L1042 713Q1042 424 1034 326.50Q1026 229 964.50 142Q903 55 798 11.50Q693-32 555-32Q384-32 275.50 23Q167 78 119.50 178Q72 278 72 430M476 935Q476 833 502.50 809Q529 785 557 785Q599 785 618.50 815.50Q638 846 638 935L638 1228Q638 1335 619.50 1368Q601 1401 558 1401Q532 1401 504 1375.50Q476 1350 476 1238L476 935Z"  horiz-adv-x="1109" vert-adv-y="2048"  />

      
      <glyph glyph-name="uni3a" unicode="&#x3a;" d="M377 1054L377 725L72 725L72 1054L377 1054M377 330L377 0L72 0L72 330L377 330Z"  horiz-adv-x="414" vert-adv-y="2048"  />

      
      <glyph glyph-name="uni3b" unicode="&#x3b;" d="M377 1054L377 725L72 725L72 1054L377 1054M360 317L360 172Q360 58 333-15Q306-88 239.50-139Q173-190 89-207L89-91Q149-57 157 0L89 0L89 317L360 317Z"  horiz-adv-x="414" vert-adv-y="2048"  />

      
      <glyph glyph-name="uni037E" unicode="&#x037E;" d="M377 1054L377 725L72 725L72 1054L377 1054M360 317L360 172Q360 58 333-15Q306-88 239.50-139Q173-190 89-207L89-91Q149-57 157 0L89 0L89 317L360 317Z"  horiz-adv-x="414" vert-adv-y="2048"  />

      
      <glyph glyph-name="uni3c" unicode="&#x3c;" d="M1027 324L65 725L65 928L1027 1330L1027 1066L433 827L1027 589L1027 324Z"  horiz-adv-x="1092" vert-adv-y="2048"  />

      
      <glyph glyph-name="uni3d" unicode="&#x3d;" d="M65 1122L1027 1122L1027 878L65 878L65 1122M65 740L1027 740L1027 496L65 496L65 740Z"  horiz-adv-x="1092" vert-adv-y="2048"  />

      
      <glyph glyph-name="uni3e" unicode="&#x3e;" d="M65 1330L1027 930L1027 726L65 324L65 588L659 827L65 1065L65 1330Z"  horiz-adv-x="1092" vert-adv-y="2048"  />

      
      <glyph glyph-name="uni3f" unicode="&#x3f;" d="M488 1097L84 1097Q86 1310 120 1408Q154 1506 267.50 1579.50Q381 1653 557 1653Q684 1653 779 1613Q874 1573 930 1501.50Q986 1430 1012 1347Q1038 1264 1038 1087L1038 889Q1038 754 1013 672Q988 590 904 528Q820 466 707 466Q560 466 488 581L488 407L111 407L111 852L479 852Q481 760 545 760Q595 760 608.50 800.50Q622 841 622 999L622 1268Q622 1357 609.50 1387.50Q597 1418 560 1418Q514 1418 501 1377.50Q488 1337 488 1195L488 1097M488 324L488 0L111 0L111 324L488 324Z"  horiz-adv-x="1075" vert-adv-y="2048"  />

      
      <glyph glyph-name="uni40" unicode="&#x40;" d="M1193 1308L1066 516Q1062 490 1062 481Q1062 442 1099 442Q1159 442 1229.50 499.50Q1300 557 1352.50 670Q1405 783 1405 934Q1405 1189 1251.50 1346.50Q1098 1504 849 1504Q560 1504 372 1304.50Q184 1105 184 772Q184 451 367.50 262.50Q551 74 835 74Q975 74 1101 121Q1227 168 1340 261L1550 261Q1420 95 1227.50 10Q1035-75 836-75Q495-75 265.50 155.50Q36 386 36 763Q36 1137 250 1395Q464 1653 845 1653Q1072 1653 1216 1565.50Q1360 1478 1456.50 1321.50Q1553 1165 1553 934Q1553 627 1382 450.50Q1211 274 1039 274Q910 274 882 390Q814 324 764.50 298.50Q715 273 646 273Q497 273 407 389Q317 505 317 699Q317 949 442.50 1143.50Q568 1338 748 1338Q820 1338 878 1302Q936 1266 979 1194L995 1308L1193 1308M525 642Q525 548 565 483Q605 418 672 418Q737 418 786.50 469Q836 520 878 678.50Q920 837 920 981Q920 1071 882 1126.50Q844 1182 779 1182Q657 1182 591 1010.50Q525 839 525 642Z"  horiz-adv-x="1587" vert-adv-y="2048"  />

      
      <glyph glyph-name="uni41" unicode="&#x41;" d="M811 1619L1052 0L621 0L600 291L449 291L424 0L-12 0L202 1619L811 1619M588 578Q556 853 524 1257Q460 793 444 578L588 578Z"  horiz-adv-x="1040" vert-adv-y="2048"  />

      
      <glyph glyph-name="uni42" unicode="&#x42;" d="M84 1619L504 1619Q703 1619 805.50 1588Q908 1557 971 1462.50Q1034 1368 1034 1158Q1034 1016 989.50 960Q945 904 814 874Q960 841 1012 764.50Q1064 688 1064 530L1064 380Q1064 216 1026.50 137Q989 58 907 29Q825 0 571 0L84 0L84 1619M505 1342L505 982Q532 983 547 983Q609 983 626 1013.50Q643 1044 643 1188Q643 1264 629 1294.50Q615 1325 592.50 1333Q570 1341 505 1342M505 730L505 277Q594 280 618.50 305Q643 330 643 428L643 579Q643 683 621 705Q599 727 505 730Z"  horiz-adv-x="1131" vert-adv-y="2048"  />

      
      <glyph glyph-name="uni43" unicode="&#x43;" d="M1067 913L646 913L646 1195Q646 1318 632.50 1348.50Q619 1379 573 1379Q521 1379 507 1342Q493 1305 493 1182L493 430Q493 312 507 276Q521 240 570 240Q617 240 631.50 276Q646 312 646 445L646 648L1067 648L1067 585Q1067 334 1031.50 229Q996 124 874.50 45Q753-34 575-34Q390-34 270 33Q150 100 111 218.50Q72 337 72 575L72 1048Q72 1223 84 1310.50Q96 1398 155.50 1479Q215 1560 320.50 1606.50Q426 1653 563 1653Q749 1653 870 1581Q991 1509 1029 1401.50Q1067 1294 1067 1067L1067 913Z"  horiz-adv-x="1134" vert-adv-y="2048"  />

      
      <glyph glyph-name="uni44" unicode="&#x44;" d="M84 1619L399 1619Q704 1619 811.50 1591Q919 1563 975 1499Q1031 1435 1045 1356.50Q1059 1278 1059 1048L1059 481Q1059 263 1038.50 189.50Q1018 116 967 74.50Q916 33 841 16.50Q766 0 615 0L84 0L84 1619M505 1342L505 277Q596 277 617 313.50Q638 350 638 512L638 1141Q638 1251 631 1282Q624 1313 599 1327.50Q574 1342 505 1342Z"  horiz-adv-x="1132" vert-adv-y="2048"  />

      
      <glyph glyph-name="uni45" unicode="&#x45;" d="M84 1619L786 1619L786 1295L505 1295L505 988L768 988L768 680L505 680L505 324L814 324L814 0L84 0L84 1619Z"  horiz-adv-x="851" vert-adv-y="2048"  />

      
      <glyph glyph-name="uni46" unicode="&#x46;" d="M84 1619L797 1619L797 1295L505 1295L505 988L765 988L765 680L505 680L505 0L84 0L84 1619Z"  horiz-adv-x="815" vert-adv-y="2048"  />

      
      <glyph glyph-name="uni47" unicode="&#x47;" d="M1050 1023L629 1023L629 1170Q629 1309 617 1344Q605 1379 560 1379Q521 1379 507 1349Q493 1319 493 1195L493 418Q493 309 507 274.50Q521 240 563 240Q609 240 625.50 279Q642 318 642 431L642 623L557 623L557 869L1050 869L1050 0L785 0L746 116Q703 41 637.50 3.50Q572-34 483-34Q377-34 284.50 17.50Q192 69 144 145Q96 221 84 304.50Q72 388 72 555L72 1036Q72 1268 97 1373Q122 1478 240.50 1565.50Q359 1653 547 1653Q732 1653 854 1577Q976 1501 1013 1396.50Q1050 1292 1050 1093L1050 1023Z"  horiz-adv-x="1129" vert-adv-y="2048"  />

      
      <glyph glyph-name="uni48" unicode="&#x48;" d="M1052 1619L1052 0L631 0L631 680L505 680L505 0L84 0L84 1619L505 1619L505 1040L631 1040L631 1619L1052 1619Z"  horiz-adv-x="1137" vert-adv-y="2048"  />

      
      <glyph glyph-name="uni49" unicode="&#x49;" d="M505 1619L505 0L84 0L84 1619L505 1619Z"  horiz-adv-x="590" vert-adv-y="2048"  />

      
      <glyph glyph-name="uni4a" unicode="&#x4a;" d="M599 1619L599 537Q599 294 594 224.50Q589 155 548.50 99Q508 43 438.50 21.50Q369 0 229 0L18 0L18 283Q56 280 73 280Q118 280 144 302Q170 324 174 356Q178 388 178 480L178 1619L599 1619Z"  horiz-adv-x="678" vert-adv-y="2048"  />

      
      <glyph glyph-name="uni4b" unicode="&#x4b;" d="M1087 1619L846 888L1110 0L675 0L505 694L505 0L84 0L84 1619L505 1619L505 990L692 1619L1087 1619Z"  horiz-adv-x="1099" vert-adv-y="2048"  />

      
      <glyph glyph-name="uni4c" unicode="&#x4c;" d="M505 1619L505 324L761 324L761 0L84 0L84 1619L505 1619Z"  horiz-adv-x="779" vert-adv-y="2048"  />

      
      <glyph glyph-name="uni4d" unicode="&#x4d;" d="M1383 1619L1383 0L1015 0L1015 1093L868 0L607 0L452 1068L452 0L84 0L84 1619L629 1619Q653 1473 680 1275L738 863L834 1619L1383 1619Z"  horiz-adv-x="1468" vert-adv-y="2048"  />

      
      <glyph glyph-name="uni4e" unicode="&#x4e;" d="M1024 1619L1024 0L655 0L436 736L436 0L84 0L84 1619L436 1619L672 890L672 1619L1024 1619Z"  horiz-adv-x="1109" vert-adv-y="2048"  />

      
      <glyph glyph-name="uni4f" unicode="&#x4f;" d="M1046 671Q1046 427 1034.50 325.50Q1023 224 962.50 140Q902 56 799 11Q696-34 559-34Q429-34 325.50 8.50Q222 51 159 136Q96 221 84 321Q72 421 72 671L72 948Q72 1192 83.50 1293.50Q95 1395 155.50 1479Q216 1563 319 1608Q422 1653 559 1653Q689 1653 792.50 1610.50Q896 1568 959 1483Q1022 1398 1034 1298Q1046 1198 1046 948L1046 671M625 1203Q625 1316 612.50 1347.50Q600 1379 561 1379Q528 1379 510.50 1353.50Q493 1328 493 1203L493 447Q493 306 504.50 273Q516 240 558 240Q601 240 613 278Q625 316 625 459L625 1203Z"  horiz-adv-x="1119" vert-adv-y="2048"  />

      
      <glyph glyph-name="uni50" unicode="&#x50;" d="M84 1619L508 1619Q680 1619 772.50 1592Q865 1565 911.50 1514Q958 1463 974.50 1390.50Q991 1318 991 1166L991 1025Q991 870 959 799Q927 728 841.50 690Q756 652 618 652L505 652L505 0L84 0L84 1619M505 1342L505 930Q523 929 536 929Q594 929 616.50 957.50Q639 986 639 1076L639 1209Q639 1292 613 1317Q587 1342 505 1342Z"  horiz-adv-x="1028" vert-adv-y="2048"  />

      
      <glyph glyph-name="uni51" unicode="&#x51;" d="M1047 0L1047-196L729-196Q614-196 567-178.50Q520-161 503.50-126Q487-91 487 0Q344 4 241 75Q138 146 105 255.50Q72 365 72 583L72 1084Q72 1249 91.50 1335.50Q111 1422 172 1498.50Q233 1575 329 1614Q425 1653 542 1653Q683 1653 793.50 1605Q904 1557 958.50 1483Q1013 1409 1029.50 1329.50Q1046 1250 1046 1093L1046 567Q1046 351 1025 274Q1004 197 944.50 151.50Q885 106 786 82Q789 28 808.50 14Q828 0 901 0L1047 0M625 1203Q625 1316 612.50 1347.50Q600 1379 561 1379Q528 1379 510.50 1353.50Q493 1328 493 1203L493 447Q493 306 504.50 273Q516 240 558 240Q601 240 613 278Q625 316 625 459L625 1203Z"  horiz-adv-x="1119" vert-adv-y="2048"  />

      
      <glyph glyph-name="uni52" unicode="&#x52;" d="M84 1619L382 1619Q680 1619 785.50 1596Q891 1573 957.50 1478.50Q1024 1384 1024 1177Q1024 988 977 923Q930 858 792 845Q917 814 960 762Q1003 710 1013.50 666.50Q1024 623 1024 427L1024 0L633 0L633 538Q633 668 612.50 699Q592 730 505 730L505 0L84 0L84 1619M505 1342L505 982Q576 982 604.50 1001.50Q633 1021 633 1128L633 1217Q633 1294 605.50 1318Q578 1342 505 1342Z"  horiz-adv-x="1103" vert-adv-y="2048"  />

      
      <glyph glyph-name="uni53" unicode="&#x53;" d="M976 1129L585 1129L585 1249Q585 1333 570 1356Q555 1379 520 1379Q482 1379 462.50 1348Q443 1317 443 1254Q443 1173 465 1132Q486 1091 584 1033Q865 866 938 759Q1011 652 1011 414Q1011 241 970.50 159Q930 77 814 21.50Q698-34 544-34Q375-34 255.50 30Q136 94 99 193Q62 292 62 474L62 580L453 580L453 383Q453 292 469.50 266Q486 240 528 240Q570 240 590.50 273Q611 306 611 371Q611 514 572 558Q532 602 375 705Q218 809 167 856Q116 903 82.50 986Q49 1069 49 1198Q49 1384 96.50 1470Q144 1556 250 1604.50Q356 1653 506 1653Q670 1653 785.50 1600Q901 1547 938.50 1466.50Q976 1386 976 1193L976 1129Z"  horiz-adv-x="1059" vert-adv-y="2048"  />

      
      <glyph glyph-name="uni54" unicode="&#x54;" d="M932 1619L932 1295L682 1295L682 0L261 0L261 1295L12 1295L12 1619L932 1619Z"  horiz-adv-x="944" vert-adv-y="2048"  />

      
      <glyph glyph-name="uni55" unicode="&#x55;" d="M1041 1619L1041 537Q1041 353 1029 278.50Q1017 204 958 125.50Q899 47 802.50 6.50Q706-34 575-34Q430-34 319 14Q208 62 153 139Q98 216 88 301.50Q78 387 78 661L78 1619L499 1619L499 405Q499 299 510.50 269.50Q522 240 557 240Q597 240 608.50 272.50Q620 305 620 426L620 1619L1041 1619Z"  horiz-adv-x="1120" vert-adv-y="2048"  />

      
      <glyph glyph-name="uni56" unicode="&#x56;" d="M1084 1619L870 0L231 0L-12 1619L432 1619Q509 950 542 488Q575 955 611 1318L640 1619L1084 1619Z"  horiz-adv-x="1072" vert-adv-y="2048"  />

      
      <glyph glyph-name="uni57" unicode="&#x57;" d="M1668 1619L1481 0L955 0Q883 373 828 848Q803 645 711 0L188 0L0 1619L409 1619L452 1054L496 509Q519 932 612 1619L1050 1619Q1059 1548 1096 1085L1142 470Q1177 1057 1259 1619L1668 1619Z"  horiz-adv-x="1668" vert-adv-y="2048"  />

      
      <glyph glyph-name="uni58" unicode="&#x58;" d="M937 1619L790 903L1012 0L622 0Q552 242 494 589Q478 436 450 264L410 0L0 0L152 903L0 1619L407 1619Q418 1552 451 1396Q477 1277 494 1178L584 1619L937 1619Z"  horiz-adv-x="988" vert-adv-y="2048"  />

      
      <glyph glyph-name="uni59" unicode="&#x59;" d="M981 1619L674 586L674 0L284 0L284 586L-12 1619L375 1619Q466 1146 477 982Q512 1241 594 1619L981 1619Z"  horiz-adv-x="969" vert-adv-y="2048"  />

      
      <glyph glyph-name="uni5a" unicode="&#x5a;" d="M788 1619L788 1295L474 324L788 324L788 0L12 0L12 235L336 1295L50 1295L50 1619L788 1619Z"  horiz-adv-x="813" vert-adv-y="2048"  />

      
      <glyph glyph-name="uni5b" unicode="&#x5b;" d="M541 1619L541 1370L450 1370L450 249L541 249L541 0L84 0L84 1619L541 1619Z"  horiz-adv-x="578" vert-adv-y="2048"  />

      
      <glyph glyph-name="uni5c" unicode="&#x5c;" d="M12 1650L315 1650L798-31L493-31L12 1650Z"  horiz-adv-x="810" vert-adv-y="2048"  />

      
      <glyph glyph-name="uni5d" unicode="&#x5d;" d="M36 0L36 249L127 249L127 1370L36 1370L36 1619L493 1619L493 0L36 0Z"  horiz-adv-x="578" vert-adv-y="2048"  />

      
      <glyph glyph-name="uni5e" unicode="&#x5e;" d="M12 820L388 1619L611 1619L977 820L693 820L495 1309L298 820L12 820Z"  horiz-adv-x="990" vert-adv-y="2048"  />

      
      <glyph glyph-name="uni5f" unicode="&#x5f;" d="M-12-154L1143-154L1143-256L-12-256L-12-154Z"  horiz-adv-x="1131" vert-adv-y="2048"  />

      
      <glyph glyph-name="uni60" unicode="&#x60;" d="M0 1772L356 1772L532 1501L329 1501L0 1772Z"  horiz-adv-x="683" vert-adv-y="2048"  />

      
      <glyph glyph-name="uni61" unicode="&#x61;" d="M433 813L54 813L54 902Q54 1056 89.50 1139.50Q125 1223 232 1287Q339 1351 510 1351Q715 1351 819 1278.50Q923 1206 944 1100.50Q965 995 965 666L965 0L572 0L572 118Q535 47 476.50 11.50Q418-24 337-24Q231-24 142.50 35.50Q54 95 54 296L54 405Q54 554 101 608Q148 662 334 734Q533 812 547 839Q561 866 561 949Q561 1053 545.50 1084.50Q530 1116 494 1116Q453 1116 443 1089.50Q433 1063 433 952L433 813M561 631Q464 560 448.50 512Q433 464 433 374Q433 271 446.50 241Q460 211 500 211Q538 211 549.50 234.50Q561 258 561 358L561 631Z"  horiz-adv-x="1032" vert-adv-y="2048"  />

      
      <glyph glyph-name="uni62" unicode="&#x62;" d="M476 1619L476 1236Q526 1294 587.50 1322.50Q649 1351 721 1351Q804 1351 865 1325Q926 1299 958 1252Q990 1205 996.50 1160Q1003 1115 1003 968L1003 370Q1003 224 983.50 152.50Q964 81 892 28.50Q820-24 721-24Q650-24 588.50 7Q527 38 476 100L450 0L72 0L72 1619L476 1619M599 950Q599 1053 586 1084.50Q573 1116 535 1116Q498 1116 487 1088.50Q476 1061 476 950L476 378Q476 271 488.50 241Q501 211 538 211Q576 211 587.50 242Q599 273 599 391L599 950Z"  horiz-adv-x="1064" vert-adv-y="2048"  />

      
      <glyph glyph-name="uni63" unicode="&#x63;" d="M965 826L584 826L584 979Q584 1059 571 1087.50Q558 1116 523 1116Q488 1116 476 1091Q464 1066 464 979L464 353Q464 282 482 246.50Q500 211 535 211Q576 211 590.50 248Q605 285 605 388L605 546L965 546Q964 387 953.50 307.50Q943 228 886.50 144.50Q830 61 739 18.50Q648-24 514-24Q343-24 243 34.50Q143 93 101.50 198.50Q60 304 60 498L60 875Q60 1044 94 1130Q128 1216 239 1283.50Q350 1351 509 1351Q667 1351 779 1284Q891 1217 928 1115Q965 1013 965 826Z"  horiz-adv-x="1013" vert-adv-y="2048"  />

      
      <glyph glyph-name="uni64" unicode="&#x64;" d="M991 1619L991 0L587 0L587 96Q529 36 465 6Q401-24 331-24Q237-24 168 25.50Q99 75 79.50 140Q60 205 60 352L60 973Q60 1126 79.50 1190Q99 1254 169 1302.50Q239 1351 336 1351Q411 1351 473.50 1324Q536 1297 587 1243L587 1619L991 1619M587 993Q587 1066 574.50 1091Q562 1116 525 1116Q489 1116 476.50 1093.50Q464 1071 464 993L464 343Q464 262 476 236.50Q488 211 522 211Q561 211 574 239.50Q587 268 587 379L587 993Z"  horiz-adv-x="1064" vert-adv-y="2048"  />

      
      <glyph glyph-name="uni65" unicode="&#x65;" d="M987 640L464 640L464 353Q464 263 477 237Q490 211 527 211Q573 211 588.50 245.50Q604 280 604 379L604 554L987 554L987 456Q987 333 971.50 267Q956 201 899 126Q842 51 754.50 13.50Q667-24 535-24Q407-24 309 13Q211 50 156.50 114.50Q102 179 81 256.50Q60 334 60 482L60 869Q60 1043 107 1143.50Q154 1244 261 1297.50Q368 1351 507 1351Q677 1351 787.50 1286.50Q898 1222 942.50 1115.50Q987 1009 987 816L987 640M582 856L582 953Q582 1056 571 1086Q560 1116 526 1116Q484 1116 474 1090.50Q464 1065 464 953L464 856L582 856Z"  horiz-adv-x="1047" vert-adv-y="2048"  />

      
      <glyph glyph-name="uni66" unicode="&#x66;" d="M587 1619L587 1414Q462 1414 439.50 1402.50Q417 1391 417 1337L417 1295L587 1295L587 1085L491 1085L491 0L87 0L87 1085L4 1085L4 1295L87 1295Q87 1426 96 1470Q105 1514 140.50 1548.50Q176 1583 240 1601Q304 1619 439 1619L587 1619Z"  horiz-adv-x="592" vert-adv-y="2048"  />

      
      <glyph glyph-name="uni67" unicode="&#x67;" d="M990 1327L990 305Q990 98 980.50 37.50Q971-23 913-90.50Q855-158 751.50-193.50Q648-229 491-229Q298-229 181-163.50Q64-98 60 94L452 94Q452 6 516 6Q562 6 577 33Q592 60 592 146L592 246Q540 199 482.50 175Q425 151 362 151Q253 151 182.50 195Q112 239 86 310.50Q60 382 60 514L60 996Q60 1185 128 1268Q196 1351 335 1351Q411 1351 473.50 1320Q536 1289 585 1227L614 1327L990 1327M585 975Q585 1066 574.50 1091Q564 1116 528 1116Q493 1116 478.50 1087.50Q464 1059 464 975L464 529Q464 440 475 413.50Q486 387 521 387Q561 387 573 419Q585 451 585 564L585 975Z"  horiz-adv-x="1062" vert-adv-y="2048"  />

      
      <glyph glyph-name="uni68" unicode="&#x68;" d="M476 1619L476 1255Q528 1303 588.50 1327Q649 1351 718 1351Q824 1351 898.50 1297Q973 1243 989.50 1172.50Q1006 1102 1006 915L1006 0L602 0L602 934Q602 1050 590.50 1083Q579 1116 539 1116Q502 1116 489 1082Q476 1048 476 947L476 0L72 0L72 1619L476 1619Z"  horiz-adv-x="1073" vert-adv-y="2048"  />

      
      <glyph glyph-name="uni69" unicode="&#x69;" d="M488 1619L488 1408L72 1408L72 1619L488 1619M488 1327L488 0L72 0L72 1327L488 1327Z"  horiz-adv-x="561" vert-adv-y="2048"  />

      
      <glyph glyph-name="uni6a" unicode="&#x6a;" d="M500 1619L500 1408L84 1408L84 1619L500 1619M500 1327L500 277Q500 92 492.50 26.50Q485-39 446.50-88.50Q408-138 343.50-162Q279-186 150-186L-6-186L-6 26Q66 26 75 42Q84 58 84 242L84 1327L500 1327Z"  horiz-adv-x="573" vert-adv-y="2048"  />

      
      <glyph glyph-name="uni6b" unicode="&#x6b;" d="M942 1327L778 798L991 0L602 0L476 578L476 0L72 0L72 1619L476 1619L476 939L602 1327L942 1327Z"  horiz-adv-x="979" vert-adv-y="2048"  />

      
      <glyph glyph-name="uni6c" unicode="&#x6c;" d="M488 1619L488 0L72 0L72 1619L488 1619Z"  horiz-adv-x="561" vert-adv-y="2048"  />

      
      <glyph glyph-name="uni6d" unicode="&#x6d;" d="M471 1327L464 1201Q511 1276 576 1313.50Q641 1351 724 1351Q886 1351 979 1201Q1030 1276 1094 1313.50Q1158 1351 1236 1351Q1339 1351 1406.50 1301Q1474 1251 1493 1178.50Q1512 1106 1512 943L1512 0L1120 0L1120 865Q1120 1035 1108.50 1075.50Q1097 1116 1055 1116Q1012 1116 999.50 1076Q987 1036 987 865L987 0L595 0L595 843Q595 1038 585.50 1077Q576 1116 533 1116Q506 1116 487 1095.50Q468 1075 466 1045.50Q464 1016 464 920L464 0L72 0L72 1327L471 1327Z"  horiz-adv-x="1579" vert-adv-y="2048"  />

      
      <glyph glyph-name="uni6e" unicode="&#x6e;" d="M483 1327L476 1205Q520 1278 583.50 1314.50Q647 1351 730 1351Q834 1351 900 1302Q966 1253 985 1178.50Q1004 1104 1004 930L1004 0L600 0L600 919Q600 1056 591 1086Q582 1116 541 1116Q498 1116 487 1081.50Q476 1047 476 897L476 0L72 0L72 1327L483 1327Z"  horiz-adv-x="1071" vert-adv-y="2048"  />

      
      <glyph glyph-name="uni6f" unicode="&#x6f;" d="M986 861L986 536Q986 357 968 273.50Q950 190 891 117.50Q832 45 739.50 10.50Q647-24 527-24Q393-24 300 5.50Q207 35 155.50 94.50Q104 154 82 238.50Q60 323 60 492L60 832Q60 1017 100 1121Q140 1225 244 1288Q348 1351 510 1351Q646 1351 743.50 1310.50Q841 1270 894 1205Q947 1140 966.50 1071Q986 1002 986 861M582 961Q582 1063 571 1089.50Q560 1116 524 1116Q488 1116 476 1089.50Q464 1063 464 961L464 362Q464 268 476 239.50Q488 211 523 211Q559 211 570.50 237Q582 263 582 349L582 961Z"  horiz-adv-x="1047" vert-adv-y="2048"  />

      
      <glyph glyph-name="uni70" unicode="&#x70;" d="M483 1327L476 1210Q530 1281 595 1316Q660 1351 737 1351Q831 1351 899.50 1300.50Q968 1250 985 1184Q1002 1118 1002 960L1002 401Q1002 220 980.50 143.50Q959 67 892.50 21.50Q826-24 732-24Q657-24 593 11Q529 46 476 115L476-189L72-189L72 1327L483 1327M598 941Q598 1064 589 1090Q580 1116 539 1116Q499 1116 487.50 1086Q476 1056 476 941L476 391Q476 271 488 241Q500 211 540 211Q579 211 588.50 238.50Q598 266 598 372L598 941Z"  horiz-adv-x="1063" vert-adv-y="2048"  />

      
      <glyph glyph-name="uni71" unicode="&#x71;" d="M988 1327L988-189L584-189L584 107Q525 21 475.50-1.50Q426-24 353-24Q247-24 177.50 26Q108 76 84 155.50Q60 235 60 399L60 984Q60 1119 78 1185.50Q96 1252 164.50 1301.50Q233 1351 327 1351Q403 1351 467 1317Q531 1283 584 1214L591 1327L988 1327M584 966Q584 1054 570.50 1085Q557 1116 522 1116Q488 1116 476 1089Q464 1062 464 966L464 375Q464 268 476 239.50Q488 211 525 211Q560 211 572 240.50Q584 270 584 369L584 966Z"  horiz-adv-x="1061" vert-adv-y="2048"  />

      
      <glyph glyph-name="uni72" unicode="&#x72;" d="M476 1327L460 1153Q548 1340 715 1351L715 884Q604 884 552 854Q500 824 488 770.50Q476 717 476 524L476 0L72 0L72 1327L476 1327Z"  horiz-adv-x="733" vert-adv-y="2048"  />

      
      <glyph glyph-name="uni73" unicode="&#x73;" d="M897 903L539 903L539 975Q539 1067 528.50 1091.50Q518 1116 476 1116Q442 1116 425 1093.50Q408 1071 408 1026Q408 965 416.50 936.50Q425 908 467.50 874Q510 840 642 775Q818 689 873 613Q928 537 928 392Q928 230 886 147.50Q844 65 745.50 20.50Q647-24 508-24Q354-24 244.50 24Q135 72 94 154Q53 236 53 402L53 466L411 466L411 382Q411 275 424.50 243Q438 211 478 211Q521 211 538 232.50Q555 254 555 323Q555 418 533 442Q510 466 298 584Q120 684 81 765.50Q42 847 42 959Q42 1118 84 1193.50Q126 1269 226.50 1310Q327 1351 460 1351Q592 1351 684.50 1317.50Q777 1284 826.50 1229Q876 1174 886.50 1127Q897 1080 897 980L897 903Z"  horiz-adv-x="964" vert-adv-y="2048"  />

      
      <glyph glyph-name="uni74" unicode="&#x74;" d="M498 1504L498 1295L607 1295L607 1085L498 1085L498 375Q498 244 511.50 229Q525 214 624 214L624 0L461 0Q323 0 264 11.50Q205 23 160 64.50Q115 106 104 159.50Q93 213 93 411L93 1085L6 1085L6 1295L93 1295L93 1504L498 1504Z"  horiz-adv-x="624" vert-adv-y="2048"  />

      
      <glyph glyph-name="uni75" unicode="&#x75;" d="M997 1327L997 0L586 0L593 110Q551 43 489.50 9.50Q428-24 348-24Q257-24 197 8Q137 40 108.50 93Q80 146 73 203.50Q66 261 66 432L66 1327L470 1327L470 424Q470 269 479.50 240Q489 211 531 211Q576 211 584.50 241Q593 271 593 434L593 1327L997 1327Z"  horiz-adv-x="1070" vert-adv-y="2048"  />

      
      <glyph glyph-name="uni76" unicode="&#x76;" d="M907 1327L718 0L191 0L-12 1327L349 1327L462 359Q475 465 506 879Q524 1110 546 1327L907 1327Z"  horiz-adv-x="895" vert-adv-y="2048"  />

      
      <glyph glyph-name="uni77" unicode="&#x77;" d="M1377 1327L1216 0L777 0Q741 243 694 640Q678 466 649 288L604 0L165 0L-6 1327L342 1327Q346 1275 430 568Q436 640 520 1327L855 1327L937 568Q956 900 1029 1327L1377 1327Z"  horiz-adv-x="1371" vert-adv-y="2048"  />

      
      <glyph glyph-name="uni78" unicode="&#x78;" d="M872 1327L711 693L906 0L513 0Q455 262 425 451Q385 215 338 0L0 0L174 693L0 1327L338 1327Q419 921 425 866Q483 1205 513 1327L872 1327Z"  horiz-adv-x="888" vert-adv-y="2048"  />

      
      <glyph glyph-name="uni79" unicode="&#x79;" d="M918 1327L802 367Q775 139 756.50 56Q738-27 695-81Q652-135 575.50-160.50Q499-186 331-186L86-186L86 26Q180 26 207 35.50Q234 45 234 78Q234 94 209 217L-12 1327L355 1327L487 432L551 1327L918 1327Z"  horiz-adv-x="918" vert-adv-y="2048"  />

      
      <glyph glyph-name="uni7a" unicode="&#x7a;" d="M701 1327L701 1033L403 266L701 266L701 0L12 0L12 278L317 1061L43 1061L43 1327L701 1327Z"  horiz-adv-x="719" vert-adv-y="2048"  />

      
      <glyph glyph-name="uni7b" unicode="&#x7b;" d="M36 538L36 778Q145 779 200 842.50Q255 906 255 1128Q255 1297 267.50 1378.50Q280 1460 328 1515Q376 1570 452 1594.50Q528 1619 667 1619L720 1619L720 1380Q575 1380 546.50 1350Q518 1320 516 1233Q510 993 500.50 921Q491 849 456.50 783.50Q422 718 328 658Q417 604 457.50 529Q498 454 505 313L520 22Q529-20 563-41.50Q597-63 719-63L719-303L667-303Q507-303 420-266.50Q333-230 294-147Q255-64 255 121Q255 325 241 382Q227 439 187 486.50Q147 534 36 538Z"  horiz-adv-x="757" vert-adv-y="2048"  />

      
      <glyph glyph-name="uni7c" unicode="&#x7c;" d="M169 1619L386 1619L386-265L169-265L169 1619Z"  horiz-adv-x="555" vert-adv-y="2048"  />

      
      <glyph glyph-name="uni7d" unicode="&#x7d;" d="M720 538Q611 537 556 473Q501 409 501 189Q501 19 489-62.50Q477-144 429-199Q381-254 305-278.50Q229-303 90-303L37-303L37-63Q176-63 207.50-34Q239-5 241 84Q247 340 259.50 412.50Q272 485 309.50 548Q347 611 428 658Q342 714 308 768Q274 822 262 885.50Q250 949 244 1121.50Q238 1294 230 1319Q222 1344 191.50 1362Q161 1380 36 1380L36 1619L89 1619Q249 1619 336 1582.50Q423 1546 462 1463Q501 1380 501 1195Q501 983 516.50 928Q532 873 571.50 827.50Q611 782 720 778L720 538Z"  horiz-adv-x="757" vert-adv-y="2048"  />

      
      <glyph glyph-name="uni7e" unicode="&#x7e;" d="M1018 787Q860 656 734 656Q648 656 478 738Q381 785 336 785Q227 785 57 623L57 900Q204 1028 346 1028Q431 1028 578 958Q697 901 747 901Q793 901 845 927.50Q897 954 1018 1062L1018 787Z"  horiz-adv-x="1075" vert-adv-y="2048"  />

      
      <glyph glyph-name="unic4" unicode="&#xc4;" d="M811 1619L1052 0L621 0L600 291L449 291L424 0L-12 0L202 1619L811 1619M588 578Q556 853 524 1257Q460 793 444 578L588 578M419 1930L419 1670L158 1670L158 1930L419 1930M856 1930L856 1670L595 1670L595 1930L856 1930Z"  horiz-adv-x="1040" vert-adv-y="2048"  />

      
      <glyph glyph-name="unic5" unicode="&#xc5;" d="M811 1619L1052 0L621 0L600 291L449 291L424 0L-12 0L202 1619L811 1619M588 578Q556 853 524 1257Q460 793 444 578L588 578M507 2066Q591 2066 654 2005.50Q717 1945 717 1855Q717 1768 655 1706.50Q593 1645 507 1645Q419 1645 357.50 1706.50Q296 1768 296 1855Q296 1942 358 2004Q420 2066 507 2066M505 1934Q472 1934 447.50 1910Q423 1886 423 1851Q423 1817 447.50 1793Q472 1769 505 1769Q539 1769 563.50 1793Q588 1817 588 1851Q588 1886 563.50 1910Q539 1934 505 1934Z"  horiz-adv-x="1040" vert-adv-y="2048"  />

      
      <glyph glyph-name="unic7" unicode="&#xc7;" d="M606-33L606-52Q660-52 705-87.50Q750-123 750-184Q750-260 688-315.50Q626-371 540-371Q384-371 341-213L489-213Q503-255 539-255Q569-255 583.50-240Q598-225 598-195Q598-162 577.50-145.50Q557-129 515-129L489-129L489-29Q318-13 222.50 64.50Q127 142 99.50 253.50Q72 365 72 575L72 1048Q72 1223 84 1310.50Q96 1398 155.50 1479Q215 1560 320.50 1606.50Q426 1653 563 1653Q749 1653 870 1581Q991 1509 1029 1401.50Q1067 1294 1067 1067L1067 913L646 913L646 1195Q646 1318 632.50 1348.50Q619 1379 573 1379Q521 1379 507 1342Q493 1305 493 1182L493 430Q493 312 507 276Q521 240 570 240Q617 240 631.50 276Q646 312 646 445L646 648L1067 648L1067 585Q1067 352 1039 250.50Q1011 149 900.50 63.50Q790-22 606-33Z"  horiz-adv-x="1134" vert-adv-y="2048"  />

      
      <glyph glyph-name="unic9" unicode="&#xc9;" d="M84 1619L786 1619L786 1295L505 1295L505 988L768 988L768 680L505 680L505 324L814 324L814 0L84 0L84 1619M766 1941L437 1670L234 1670L410 1941L766 1941Z"  horiz-adv-x="851" vert-adv-y="2048"  />

      
      <glyph glyph-name="unid1" unicode="&#xd1;" d="M1024 1619L1024 0L655 0L436 736L436 0L84 0L84 1619L436 1619L672 890L672 1619L1024 1619M976 1860Q930 1759 863 1719Q796 1679 745 1679Q674 1679 592 1712L518 1741Q447 1770 412 1770Q338 1770 290 1670L132 1775Q242 1969 380 1969Q452 1969 537 1937L599 1914Q677 1885 705 1885Q788 1885 815 1975L976 1860Z"  horiz-adv-x="1109" vert-adv-y="2048"  />

      
      <glyph glyph-name="unid6" unicode="&#xd6;" d="M1046 671Q1046 427 1034.50 325.50Q1023 224 962.50 140Q902 56 799 11Q696-34 559-34Q429-34 325.50 8.50Q222 51 159 136Q96 221 84 321Q72 421 72 671L72 948Q72 1192 83.50 1293.50Q95 1395 155.50 1479Q216 1563 319 1608Q422 1653 559 1653Q689 1653 792.50 1610.50Q896 1568 959 1483Q1022 1398 1034 1298Q1046 1198 1046 948L1046 671M625 1203Q625 1316 612.50 1347.50Q600 1379 561 1379Q528 1379 510.50 1353.50Q493 1328 493 1203L493 447Q493 306 504.50 273Q516 240 558 240Q601 240 613 278Q625 316 625 459L625 1203M471 1930L471 1670L210 1670L210 1930L471 1930M908 1930L908 1670L647 1670L647 1930L908 1930Z"  horiz-adv-x="1119" vert-adv-y="2048"  />

      
      <glyph glyph-name="unidc" unicode="&#xdc;" d="M1041 1619L1041 537Q1041 353 1029 278.50Q1017 204 958 125.50Q899 47 802.50 6.50Q706-34 575-34Q430-34 319 14Q208 62 153 139Q98 216 88 301.50Q78 387 78 661L78 1619L499 1619L499 405Q499 299 510.50 269.50Q522 240 557 240Q597 240 608.50 272.50Q620 305 620 426L620 1619L1041 1619M472 1930L472 1670L211 1670L211 1930L472 1930M909 1930L909 1670L648 1670L648 1930L909 1930Z"  horiz-adv-x="1120" vert-adv-y="2048"  />

      
      <glyph glyph-name="unie1" unicode="&#xe1;" d="M433 813L54 813L54 902Q54 1056 89.50 1139.50Q125 1223 232 1287Q339 1351 510 1351Q715 1351 819 1278.50Q923 1206 944 1100.50Q965 995 965 666L965 0L572 0L572 118Q535 47 476.50 11.50Q418-24 337-24Q231-24 142.50 35.50Q54 95 54 296L54 405Q54 554 101 608Q148 662 334 734Q533 812 547 839Q561 866 561 949Q561 1053 545.50 1084.50Q530 1116 494 1116Q453 1116 443 1089.50Q433 1063 433 952L433 813M561 631Q464 560 448.50 512Q433 464 433 374Q433 271 446.50 241Q460 211 500 211Q538 211 549.50 234.50Q561 258 561 358L561 631M857 1687L528 1416L325 1416L501 1687L857 1687Z"  horiz-adv-x="1032" vert-adv-y="2048"  />

      
      <glyph glyph-name="unie0" unicode="&#xe0;" d="M433 813L54 813L54 902Q54 1056 89.50 1139.50Q125 1223 232 1287Q339 1351 510 1351Q715 1351 819 1278.50Q923 1206 944 1100.50Q965 995 965 666L965 0L572 0L572 118Q535 47 476.50 11.50Q418-24 337-24Q231-24 142.50 35.50Q54 95 54 296L54 405Q54 554 101 608Q148 662 334 734Q533 812 547 839Q561 866 561 949Q561 1053 545.50 1084.50Q530 1116 494 1116Q453 1116 443 1089.50Q433 1063 433 952L433 813M561 631Q464 560 448.50 512Q433 464 433 374Q433 271 446.50 241Q460 211 500 211Q538 211 549.50 234.50Q561 258 561 358L561 631M174 1687L530 1687L706 1416L503 1416L174 1687Z"  horiz-adv-x="1032" vert-adv-y="2048"  />

      
      <glyph glyph-name="unie2" unicode="&#xe2;" d="M433 813L54 813L54 902Q54 1056 89.50 1139.50Q125 1223 232 1287Q339 1351 510 1351Q715 1351 819 1278.50Q923 1206 944 1100.50Q965 995 965 666L965 0L572 0L572 118Q535 47 476.50 11.50Q418-24 337-24Q231-24 142.50 35.50Q54 95 54 296L54 405Q54 554 101 608Q148 662 334 734Q533 812 547 839Q561 866 561 949Q561 1053 545.50 1084.50Q530 1116 494 1116Q453 1116 443 1089.50Q433 1063 433 952L433 813M561 631Q464 560 448.50 512Q433 464 433 374Q433 271 446.50 241Q460 211 500 211Q538 211 549.50 234.50Q561 258 561 358L561 631M524 1547L406 1416L126 1416L383 1698L665 1698L906 1416L635 1416L524 1547Z"  horiz-adv-x="1032" vert-adv-y="2048"  />

      
      <glyph glyph-name="unie4" unicode="&#xe4;" d="M433 813L54 813L54 902Q54 1056 89.50 1139.50Q125 1223 232 1287Q339 1351 510 1351Q715 1351 819 1278.50Q923 1206 944 1100.50Q965 995 965 666L965 0L572 0L572 118Q535 47 476.50 11.50Q418-24 337-24Q231-24 142.50 35.50Q54 95 54 296L54 405Q54 554 101 608Q148 662 334 734Q533 812 547 839Q561 866 561 949Q561 1053 545.50 1084.50Q530 1116 494 1116Q453 1116 443 1089.50Q433 1063 433 952L433 813M561 631Q464 560 448.50 512Q433 464 433 374Q433 271 446.50 241Q460 211 500 211Q538 211 549.50 234.50Q561 258 561 358L561 631M428 1676L428 1416L167 1416L167 1676L428 1676M865 1676L865 1416L604 1416L604 1676L865 1676Z"  horiz-adv-x="1032" vert-adv-y="2048"  />

      
      <glyph glyph-name="unie3" unicode="&#xe3;" d="M433 813L54 813L54 902Q54 1056 89.50 1139.50Q125 1223 232 1287Q339 1351 510 1351Q715 1351 819 1278.50Q923 1206 944 1100.50Q965 995 965 666L965 0L572 0L572 118Q535 47 476.50 11.50Q418-24 337-24Q231-24 142.50 35.50Q54 95 54 296L54 405Q54 554 101 608Q148 662 334 734Q533 812 547 839Q561 866 561 949Q561 1053 545.50 1084.50Q530 1116 494 1116Q453 1116 443 1089.50Q433 1063 433 952L433 813M561 631Q464 560 448.50 512Q433 464 433 374Q433 271 446.50 241Q460 211 500 211Q538 211 549.50 234.50Q561 258 561 358L561 631M938 1606Q892 1505 825 1465Q758 1425 707 1425Q636 1425 554 1458L480 1487Q409 1516 374 1516Q300 1516 252 1416L94 1521Q204 1715 342 1715Q414 1715 499 1683L561 1660Q639 1631 667 1631Q750 1631 777 1721L938 1606Z"  horiz-adv-x="1032" vert-adv-y="2048"  />

      
      <glyph glyph-name="unie5" unicode="&#xe5;" d="M433 813L54 813L54 902Q54 1056 89.50 1139.50Q125 1223 232 1287Q339 1351 510 1351Q715 1351 819 1278.50Q923 1206 944 1100.50Q965 995 965 666L965 0L572 0L572 118Q535 47 476.50 11.50Q418-24 337-24Q231-24 142.50 35.50Q54 95 54 296L54 405Q54 554 101 608Q148 662 334 734Q533 812 547 839Q561 866 561 949Q561 1053 545.50 1084.50Q530 1116 494 1116Q453 1116 443 1089.50Q433 1063 433 952L433 813M561 631Q464 560 448.50 512Q433 464 433 374Q433 271 446.50 241Q460 211 500 211Q538 211 549.50 234.50Q561 258 561 358L561 631M516 1837Q600 1837 663 1776.50Q726 1716 726 1626Q726 1539 664 1477.50Q602 1416 516 1416Q428 1416 366.50 1477.50Q305 1539 305 1626Q305 1713 367 1775Q429 1837 516 1837M514 1705Q481 1705 456.50 1681Q432 1657 432 1622Q432 1588 456.50 1564Q481 1540 514 1540Q548 1540 572.50 1564Q597 1588 597 1622Q597 1657 572.50 1681Q548 1705 514 1705Z"  horiz-adv-x="1032" vert-adv-y="2048"  />

      
      <glyph glyph-name="unie7" unicode="&#xe7;" d="M546-23L546-52Q598-52 644-87Q690-122 690-184Q690-260 628-315.50Q566-371 480-371Q324-371 281-213L429-213Q443-255 479-255Q509-255 523.50-240Q538-225 538-195Q538-162 517.50-145.50Q497-129 455-129L429-129L429-19Q278-1 203.50 60.50Q129 122 94.50 216Q60 310 60 498L60 875Q60 1044 94 1130Q128 1216 239 1283.50Q350 1351 509 1351Q667 1351 779 1284Q891 1217 928 1115Q965 1013 965 826L584 826L584 979Q584 1059 571 1087.50Q558 1116 523 1116Q488 1116 476 1091Q464 1066 464 979L464 353Q464 282 482 246.50Q500 211 535 211Q576 211 590.50 248Q605 285 605 388L605 546L965 546Q964 398 955.50 319.50Q947 241 896 159Q845 77 762.50 31Q680-15 546-23Z"  horiz-adv-x="1013" vert-adv-y="2048"  />

      
      <glyph glyph-name="unie9" unicode="&#xe9;" d="M987 640L464 640L464 353Q464 263 477 237Q490 211 527 211Q573 211 588.50 245.50Q604 280 604 379L604 554L987 554L987 456Q987 333 971.50 267Q956 201 899 126Q842 51 754.50 13.50Q667-24 535-24Q407-24 309 13Q211 50 156.50 114.50Q102 179 81 256.50Q60 334 60 482L60 869Q60 1043 107 1143.50Q154 1244 261 1297.50Q368 1351 507 1351Q677 1351 787.50 1286.50Q898 1222 942.50 1115.50Q987 1009 987 816L987 640M582 856L582 953Q582 1056 571 1086Q560 1116 526 1116Q484 1116 474 1090.50Q464 1065 464 953L464 856L582 856M865 1687L536 1416L333 1416L509 1687L865 1687Z"  horiz-adv-x="1047" vert-adv-y="2048"  />

      
      <glyph glyph-name="unie8" unicode="&#xe8;" d="M987 640L464 640L464 353Q464 263 477 237Q490 211 527 211Q573 211 588.50 245.50Q604 280 604 379L604 554L987 554L987 456Q987 333 971.50 267Q956 201 899 126Q842 51 754.50 13.50Q667-24 535-24Q407-24 309 13Q211 50 156.50 114.50Q102 179 81 256.50Q60 334 60 482L60 869Q60 1043 107 1143.50Q154 1244 261 1297.50Q368 1351 507 1351Q677 1351 787.50 1286.50Q898 1222 942.50 1115.50Q987 1009 987 816L987 640M582 856L582 953Q582 1056 571 1086Q560 1116 526 1116Q484 1116 474 1090.50Q464 1065 464 953L464 856L582 856M182 1687L538 1687L714 1416L511 1416L182 1687Z"  horiz-adv-x="1047" vert-adv-y="2048"  />

      
      <glyph glyph-name="uniea" unicode="&#xea;" d="M987 640L464 640L464 353Q464 263 477 237Q490 211 527 211Q573 211 588.50 245.50Q604 280 604 379L604 554L987 554L987 456Q987 333 971.50 267Q956 201 899 126Q842 51 754.50 13.50Q667-24 535-24Q407-24 309 13Q211 50 156.50 114.50Q102 179 81 256.50Q60 334 60 482L60 869Q60 1043 107 1143.50Q154 1244 261 1297.50Q368 1351 507 1351Q677 1351 787.50 1286.50Q898 1222 942.50 1115.50Q987 1009 987 816L987 640M582 856L582 953Q582 1056 571 1086Q560 1116 526 1116Q484 1116 474 1090.50Q464 1065 464 953L464 856L582 856M531 1547L413 1416L133 1416L390 1698L672 1698L913 1416L642 1416L531 1547Z"  horiz-adv-x="1047" vert-adv-y="2048"  />

      
      <glyph glyph-name="unieb" unicode="&#xeb;" d="M987 640L464 640L464 353Q464 263 477 237Q490 211 527 211Q573 211 588.50 245.50Q604 280 604 379L604 554L987 554L987 456Q987 333 971.50 267Q956 201 899 126Q842 51 754.50 13.50Q667-24 535-24Q407-24 309 13Q211 50 156.50 114.50Q102 179 81 256.50Q60 334 60 482L60 869Q60 1043 107 1143.50Q154 1244 261 1297.50Q368 1351 507 1351Q677 1351 787.50 1286.50Q898 1222 942.50 1115.50Q987 1009 987 816L987 640M582 856L582 953Q582 1056 571 1086Q560 1116 526 1116Q484 1116 474 1090.50Q464 1065 464 953L464 856L582 856M435 1676L435 1416L174 1416L174 1676L435 1676M872 1676L872 1416L611 1416L611 1676L872 1676Z"  horiz-adv-x="1047" vert-adv-y="2048"  />

      
      <glyph glyph-name="unied" unicode="&#xed;" d="M488 1327L488 0L72 0L72 1327L488 1327M625 1687L296 1416L93 1416L269 1687L625 1687Z"  horiz-adv-x="561" vert-adv-y="2048"  />

      
      <glyph glyph-name="uniec" unicode="&#xec;" d="M488 1327L488 0L72 0L72 1327L488 1327M-58 1687L298 1687L474 1416L271 1416L-58 1687Z"  horiz-adv-x="561" vert-adv-y="2048"  />

      
      <glyph glyph-name="uniee" unicode="&#xee;" d="M488 1327L488 0L72 0L72 1327L488 1327M292 1547L174 1416L-106 1416L151 1698L433 1698L674 1416L403 1416L292 1547Z"  horiz-adv-x="561" vert-adv-y="2048"  />

      
      <glyph glyph-name="unief" unicode="&#xef;" d="M488 1327L488 0L72 0L72 1327L488 1327M196 1676L196 1416L-65 1416L-65 1676L196 1676M633 1676L633 1416L372 1416L372 1676L633 1676Z"  horiz-adv-x="561" vert-adv-y="2048"  />

      
      <glyph glyph-name="unif1" unicode="&#xf1;" d="M483 1327L476 1205Q520 1278 583.50 1314.50Q647 1351 730 1351Q834 1351 900 1302Q966 1253 985 1178.50Q1004 1104 1004 930L1004 0L600 0L600 919Q600 1056 591 1086Q582 1116 541 1116Q498 1116 487 1081.50Q476 1047 476 897L476 0L72 0L72 1327L483 1327M957 1606Q911 1505 844 1465Q777 1425 726 1425Q655 1425 573 1458L499 1487Q428 1516 393 1516Q319 1516 271 1416L113 1521Q223 1715 361 1715Q433 1715 518 1683L580 1660Q658 1631 686 1631Q769 1631 796 1721L957 1606Z"  horiz-adv-x="1071" vert-adv-y="2048"  />

      
      <glyph glyph-name="unif3" unicode="&#xf3;" d="M986 861L986 536Q986 357 968 273.50Q950 190 891 117.50Q832 45 739.50 10.50Q647-24 527-24Q393-24 300 5.50Q207 35 155.50 94.50Q104 154 82 238.50Q60 323 60 492L60 832Q60 1017 100 1121Q140 1225 244 1288Q348 1351 510 1351Q646 1351 743.50 1310.50Q841 1270 894 1205Q947 1140 966.50 1071Q986 1002 986 861M582 961Q582 1063 571 1089.50Q560 1116 524 1116Q488 1116 476 1089.50Q464 1063 464 961L464 362Q464 268 476 239.50Q488 211 523 211Q559 211 570.50 237Q582 263 582 349L582 961M865 1687L536 1416L333 1416L509 1687L865 1687Z"  horiz-adv-x="1047" vert-adv-y="2048"  />

      
      <glyph glyph-name="unif2" unicode="&#xf2;" d="M986 861L986 536Q986 357 968 273.50Q950 190 891 117.50Q832 45 739.50 10.50Q647-24 527-24Q393-24 300 5.50Q207 35 155.50 94.50Q104 154 82 238.50Q60 323 60 492L60 832Q60 1017 100 1121Q140 1225 244 1288Q348 1351 510 1351Q646 1351 743.50 1310.50Q841 1270 894 1205Q947 1140 966.50 1071Q986 1002 986 861M582 961Q582 1063 571 1089.50Q560 1116 524 1116Q488 1116 476 1089.50Q464 1063 464 961L464 362Q464 268 476 239.50Q488 211 523 211Q559 211 570.50 237Q582 263 582 349L582 961M182 1687L538 1687L714 1416L511 1416L182 1687Z"  horiz-adv-x="1047" vert-adv-y="2048"  />

      
      <glyph glyph-name="unif4" unicode="&#xf4;" d="M986 861L986 536Q986 357 968 273.50Q950 190 891 117.50Q832 45 739.50 10.50Q647-24 527-24Q393-24 300 5.50Q207 35 155.50 94.50Q104 154 82 238.50Q60 323 60 492L60 832Q60 1017 100 1121Q140 1225 244 1288Q348 1351 510 1351Q646 1351 743.50 1310.50Q841 1270 894 1205Q947 1140 966.50 1071Q986 1002 986 861M582 961Q582 1063 571 1089.50Q560 1116 524 1116Q488 1116 476 1089.50Q464 1063 464 961L464 362Q464 268 476 239.50Q488 211 523 211Q559 211 570.50 237Q582 263 582 349L582 961M531 1547L413 1416L133 1416L390 1698L672 1698L913 1416L642 1416L531 1547Z"  horiz-adv-x="1047" vert-adv-y="2048"  />

      
      <glyph glyph-name="unif6" unicode="&#xf6;" d="M986 861L986 536Q986 357 968 273.50Q950 190 891 117.50Q832 45 739.50 10.50Q647-24 527-24Q393-24 300 5.50Q207 35 155.50 94.50Q104 154 82 238.50Q60 323 60 492L60 832Q60 1017 100 1121Q140 1225 244 1288Q348 1351 510 1351Q646 1351 743.50 1310.50Q841 1270 894 1205Q947 1140 966.50 1071Q986 1002 986 861M582 961Q582 1063 571 1089.50Q560 1116 524 1116Q488 1116 476 1089.50Q464 1063 464 961L464 362Q464 268 476 239.50Q488 211 523 211Q559 211 570.50 237Q582 263 582 349L582 961M435 1676L435 1416L174 1416L174 1676L435 1676M872 1676L872 1416L611 1416L611 1676L872 1676Z"  horiz-adv-x="1047" vert-adv-y="2048"  />

      
      <glyph glyph-name="unif5" unicode="&#xf5;" d="M986 861L986 536Q986 357 968 273.50Q950 190 891 117.50Q832 45 739.50 10.50Q647-24 527-24Q393-24 300 5.50Q207 35 155.50 94.50Q104 154 82 238.50Q60 323 60 492L60 832Q60 1017 100 1121Q140 1225 244 1288Q348 1351 510 1351Q646 1351 743.50 1310.50Q841 1270 894 1205Q947 1140 966.50 1071Q986 1002 986 861M582 961Q582 1063 571 1089.50Q560 1116 524 1116Q488 1116 476 1089.50Q464 1063 464 961L464 362Q464 268 476 239.50Q488 211 523 211Q559 211 570.50 237Q582 263 582 349L582 961M945 1606Q899 1505 832 1465Q765 1425 714 1425Q643 1425 561 1458L487 1487Q416 1516 381 1516Q307 1516 259 1416L101 1521Q211 1715 349 1715Q421 1715 506 1683L568 1660Q646 1631 674 1631Q757 1631 784 1721L945 1606Z"  horiz-adv-x="1047" vert-adv-y="2048"  />

      
      <glyph glyph-name="unifa" unicode="&#xfa;" d="M997 1327L997 0L586 0L593 110Q551 43 489.50 9.50Q428-24 348-24Q257-24 197 8Q137 40 108.50 93Q80 146 73 203.50Q66 261 66 432L66 1327L470 1327L470 424Q470 269 479.50 240Q489 211 531 211Q576 211 584.50 241Q593 271 593 434L593 1327L997 1327M876 1687L547 1416L344 1416L520 1687L876 1687Z"  horiz-adv-x="1070" vert-adv-y="2048"  />

      
      <glyph glyph-name="unif9" unicode="&#xf9;" d="M997 1327L997 0L586 0L593 110Q551 43 489.50 9.50Q428-24 348-24Q257-24 197 8Q137 40 108.50 93Q80 146 73 203.50Q66 261 66 432L66 1327L470 1327L470 424Q470 269 479.50 240Q489 211 531 211Q576 211 584.50 241Q593 271 593 434L593 1327L997 1327M193 1687L549 1687L725 1416L522 1416L193 1687Z"  horiz-adv-x="1070" vert-adv-y="2048"  />

      
      <glyph glyph-name="unifb" unicode="&#xfb;" d="M997 1327L997 0L586 0L593 110Q551 43 489.50 9.50Q428-24 348-24Q257-24 197 8Q137 40 108.50 93Q80 146 73 203.50Q66 261 66 432L66 1327L470 1327L470 424Q470 269 479.50 240Q489 211 531 211Q576 211 584.50 241Q593 271 593 434L593 1327L997 1327M543 1547L425 1416L145 1416L402 1698L684 1698L925 1416L654 1416L543 1547Z"  horiz-adv-x="1070" vert-adv-y="2048"  />

      
      <glyph glyph-name="unifc" unicode="&#xfc;" d="M997 1327L997 0L586 0L593 110Q551 43 489.50 9.50Q428-24 348-24Q257-24 197 8Q137 40 108.50 93Q80 146 73 203.50Q66 261 66 432L66 1327L470 1327L470 424Q470 269 479.50 240Q489 211 531 211Q576 211 584.50 241Q593 271 593 434L593 1327L997 1327M447 1676L447 1416L186 1416L186 1676L447 1676M884 1676L884 1416L623 1416L623 1676L884 1676Z"  horiz-adv-x="1070" vert-adv-y="2048"  />

      
      <glyph glyph-name="uni2020" unicode="&#x2020;" d="M334 1619L778 1619L778 1151L1076 1151L1076 770L778 770L778-189L334-189L334 770L36 770L36 1150L334 1150L334 1619Z"  horiz-adv-x="1112" vert-adv-y="2048"  />

      
      <glyph glyph-name="unib0" unicode="&#xb0;" d="M36 1314Q36 1456 131 1548.50Q226 1641 355 1641Q488 1641 581 1547.50Q674 1454 674 1322Q674 1190 580.50 1096.50Q487 1003 356 1003Q215 1003 125.50 1100.50Q36 1198 36 1314M202 1326Q202 1258 247.50 1213.50Q293 1169 355 1169Q418 1169 463 1214Q508 1259 508 1322Q508 1385 463 1430Q418 1475 355 1475Q289 1475 245.50 1428Q202 1381 202 1326Z"  horiz-adv-x="711" vert-adv-y="2048"  />

      
      <glyph glyph-name="unia2" unicode="&#xa2;" d="M1004 922L600 922L600 1057Q600 1173 587.50 1203.50Q575 1234 532 1234Q491 1234 477.50 1208Q464 1182 464 1071L464 450Q464 341 477 310.50Q490 280 530 280Q580 280 598.50 321Q617 362 617 494L617 640L1004 640Q1005 595 1005 574Q1005 335 915.50 208Q826 81 629 38L629-127L443-127L443 38Q311 56 210 136.50Q109 217 84.50 304.50Q60 392 60 589L60 887Q60 1089 85.50 1187Q111 1285 205 1365.50Q299 1446 443 1475L443 1612L629 1612L629 1475Q727 1457 807.50 1407.50Q888 1358 934 1290Q980 1222 992 1153.50Q1004 1085 1004 922Z"  horiz-adv-x="1059" vert-adv-y="2048"  />

      
      <glyph glyph-name="unia3" unicode="&#xa3;" d="M999 1098L637 1098L637 1245Q637 1343 633.50 1369.50Q630 1396 609.50 1416.50Q589 1437 558 1437Q518 1437 492 1403Q466 1369 466 1326Q466 1271 510 1119Q557 953 558 921L813 921L813 645L582 645Q579 373 388 236Q406 238 433 242Q463 247 487 247Q520 247 579 237Q602 233 620 233Q660 233 685 258Q709 283 709 390Q709 406 708 454L1048 454L1047 325Q1047 180 1026 116.50Q1005 53 932 11Q859-31 748-31Q678-31 543 3Q412 37 317 37Q167 37 72-31L72 205Q115 234 142.50 278.50Q170 323 193 424.50Q216 526 216 601Q216 617 215 645L72 645L72 921L171 921Q87 1081 87 1227Q87 1436 216 1543Q345 1650 544 1650Q757 1650 883 1537.50Q1009 1425 1009 1230Q1009 1177 999 1098Z"  horiz-adv-x="1096" vert-adv-y="2048"  />

      
      <glyph glyph-name="unia7" unicode="&#xa7;" d="M877 1273L558 1273L558 1298Q558 1348 537.50 1373Q517 1398 475 1398Q445 1398 430 1383.50Q415 1369 415 1339Q415 1308 446 1272Q476 1236 607 1141Q842 971 898.50 894Q955 817 955 729Q955 545 738 444Q824 355 867 274.50Q910 194 910 121Q910-13 799.50-121Q689-229 493-229Q326-229 221-138.50Q116-48 113 146L433 146Q433 17 512 17Q544 17 559.50 33.50Q575 50 575 83Q575 119 544 154Q513 188 436 244Q208 407 122 497.50Q36 588 36 694Q36 859 252 983Q168 1059 125.50 1139Q83 1219 83 1303Q83 1434 185.50 1543.50Q288 1653 492 1653Q654 1653 765.50 1569.50Q877 1486 877 1273M382 869Q347 833 347 794Q347 765 372 738.50Q397 712 501 638Q572 586 609 558Q644 590 644 633Q644 663 609.50 697Q575 731 469 806Q424 838 382 869Z"  horiz-adv-x="991" vert-adv-y="2048"  />

      
      <glyph glyph-name="uni2022" unicode="&#x2022;" d="M651 817Q651 685 563 599.50Q475 514 356 514Q233 514 146.50 600.50Q60 687 60 810Q60 931 147 1018Q234 1105 355 1105Q485 1105 568 1015Q651 925 651 817Z"  horiz-adv-x="712" vert-adv-y="2048"  />

      
      <glyph glyph-name="unib6" unicode="&#xb6;" d="M673-221L430-221L430 797Q36 841 36 1200Q36 1317 81 1406.50Q126 1496 202.50 1546Q279 1596 349.50 1607.50Q420 1619 570 1619L1167 1619L1167 1358L1054 1358L1054-221L817-221L817 1358L673 1358L673-221Z"  horiz-adv-x="1180" vert-adv-y="2048"  />

      
      <glyph glyph-name="unidf" unicode="&#xdf;" d="M902 1023Q974 990 1017 918Q1060 846 1060 632L1060 483Q1060 335 1039 259Q1018 183 955 117.50Q892 52 810 26Q728 0 608 0L531 0L531 245L577 245Q632 245 644 263Q656 281 656 404L656 800Q655 869 641 893Q627 917 577 924L577 1170Q599 1170 619 1182.50Q639 1195 639 1264Q639 1341 618.50 1379.50Q598 1418 557 1418Q510 1418 493 1384Q476 1350 476 1249L476 0L72 0L72 1081Q72 1316 98.50 1414.50Q125 1513 233.50 1583Q342 1653 535 1653Q774 1653 906.50 1556Q1039 1459 1039 1286Q1039 1129 902 1023Z"  horiz-adv-x="1127" vert-adv-y="2048"  />

      
      <glyph glyph-name="uniae" unicode="&#xae;" d="M782 1532Q1125 1532 1346.50 1304Q1568 1076 1568 766Q1568 450 1343 225Q1118 0 802 0Q484 0 260 224.50Q36 449 36 766Q36 989 154.50 1175.50Q273 1362 451 1447Q629 1532 782 1532M820 1383Q538 1383 363 1197Q188 1011 188 766Q188 512 369 331Q550 150 804 150Q1057 150 1238 331Q1419 512 1419 766Q1419 941 1328 1088.50Q1237 1236 1094 1309.50Q951 1383 820 1383M465 357L465 1170L850 1170Q993 1170 1058 1103.50Q1123 1037 1123 940Q1123 846 1068.50 789Q1014 732 904 712Q954 693 983.50 660.50Q1013 628 1077 520L1172 357L969 357L901 488Q840 605 793.50 647.50Q747 690 672 690L629 690L629 357L465 357M629 819L763 819Q864 819 906.50 845.50Q949 872 949 932Q949 986 907 1013Q865 1040 780 1040L629 1040L629 819Z"  horiz-adv-x="1605" vert-adv-y="2048"  />

      
      <glyph glyph-name="unia9" unicode="&#xa9;" d="M782 1532Q1130 1532 1349 1302Q1568 1072 1568 766Q1568 450 1343 225Q1118 0 802 0Q484 0 260 224.50Q36 449 36 766Q36 984 149.50 1167Q263 1350 441 1441Q619 1532 782 1532M818 1381Q542 1381 364.50 1198Q187 1015 187 766Q187 513 367.50 332Q548 151 802 151Q1056 151 1236.50 332Q1417 513 1417 766Q1417 1030 1230.50 1205.50Q1044 1381 818 1381M988 653L1149 598Q1068 338 810 338Q635 338 530.50 453.50Q426 569 426 762Q426 961 532 1075.50Q638 1190 806 1190Q1062 1190 1149 947L987 909Q935 1048 809 1048Q709 1048 655.50 972.50Q602 897 602 773Q602 634 653.50 557.50Q705 481 799 481Q934 481 988 653Z"  horiz-adv-x="1605" vert-adv-y="2048"  />

      
      <glyph glyph-name="uni2122" unicode="&#x2122;" d="M265 800L265 1477L12 1477L12 1619L677 1619L677 1477L431 1477L431 800L265 800M738 800L738 1619L997 1619L1146 1055L1295 1619L1555 1619L1555 800L1397 800L1397 1453L1220 800L1070 800L894 1453L894 800L738 800Z"  horiz-adv-x="1603" vert-adv-y="2048"  />

      
      <glyph glyph-name="unib4" unicode="&#xb4;" d="M683 1772L354 1501L151 1501L327 1772L683 1772Z"  horiz-adv-x="683" vert-adv-y="2048"  />

      
      <glyph glyph-name="unia8" unicode="&#xa8;" d="M254 1761L254 1501L-7 1501L-7 1761L254 1761M691 1761L691 1501L430 1501L430 1761L691 1761Z"  horiz-adv-x="683" vert-adv-y="2048"  />

      
      <glyph glyph-name="uni2260" unicode="&#x2260;" d="M65 1122L555 1122L720 1541L943 1541L781 1122L1027 1122L1027 878L686 878L632 740L1027 740L1027 496L537 496L371 77L145 77L311 496L65 496L65 740L406 740L461 878L65 878L65 1122Z"  horiz-adv-x="1092" vert-adv-y="2048"  />

      
      <glyph glyph-name="unic6" unicode="&#xc6;" d="M1404 1619L1404 1295L1121 1295L1121 988L1387 988L1387 680L1121 680L1121 324L1424 324L1424 0L700 0L700 291L458 291L390 0L-12 0L414 1619L1404 1619M700 1316L521 578L700 578L700 1316Z"  horiz-adv-x="1461" vert-adv-y="2048"  />

      
      <glyph glyph-name="unid8" unicode="&#xd8;" d="M1026 1340Q1046 1264 1046 948L1046 671Q1046 427 1034.50 325.50Q1023 224 962.50 140Q902 56 799 11Q696-34 559-34Q413-34 309.50 14Q206 62 144 157L37 17L-55 87L92 279Q72 351 72 671L72 948Q72 1192 83.50 1293.50Q95 1395 155.50 1479Q216 1563 319 1608Q422 1653 559 1653Q704 1653 808 1605.50Q912 1558 974 1462L1081 1602L1173 1533L1026 1340M625 987L625 1203Q625 1316 612.50 1347.50Q600 1379 561 1379Q520 1379 506.50 1345.50Q493 1312 493 1203L493 813L625 987M493 624L493 447Q493 306 504.50 273Q516 240 558 240Q601 240 613 278Q625 316 625 459L625 799L493 624Z"  horiz-adv-x="1119" vert-adv-y="2048"  />

      
      <glyph glyph-name="uni221E" unicode="&#x221E;" d="M653 809Q723 978 811 1032Q899 1086 1023 1086Q1120 1086 1203 1042.50Q1286 999 1346 903Q1406 807 1406 669Q1406 546 1357 453Q1308 360 1224.50 304.50Q1141 249 1057 249Q978 249 902 298.50Q826 348 720 535Q664 419 583 360.50Q502 302 396 302Q254 302 153.50 404Q53 506 53 671Q53 828 141.50 933Q230 1038 360 1038Q437 1038 507 996Q577 954 653 809M749 606Q818 459 891.50 401Q965 343 1061 343Q1190 343 1269.50 436Q1349 529 1349 669Q1349 814 1262.50 911Q1176 1008 1067 1008Q982 1008 917 950Q852 892 749 606M624 732Q579 839 512.50 892.50Q446 946 357 946Q256 946 182 873.50Q108 801 108 672Q108 535 180.50 457.50Q253 380 338 380Q401 380 471 431Q541 482 613 698L624 732Z"  horiz-adv-x="1460" vert-adv-y="2048"  />

      
      <glyph glyph-name="unib1" unicode="&#xb1;" d="M667 543L423 543L423 898L64 898L64 1142L423 1142L423 1502L667 1502L667 1142L1028 1142L1028 898L667 898L667 543M64 423L1028 423L1028 179L64 179L64 423Z"  horiz-adv-x="1092" vert-adv-y="2048"  />

      
      <glyph glyph-name="uni2264" unicode="&#x2264;" d="M1027 486L65 887L65 1090L1027 1492L1027 1228L433 989L1027 751L1027 486M64 406L1028 406L1028 162L64 162L64 406Z"  horiz-adv-x="1092" vert-adv-y="2048"  />

      
      <glyph glyph-name="uni2265" unicode="&#x2265;" d="M65 1492L1027 1092L1027 888L65 486L65 751L659 989L65 1227L65 1492M64 406L1028 406L1028 162L64 162L64 406Z"  horiz-adv-x="1092" vert-adv-y="2048"  />

      
      <glyph glyph-name="unia5" unicode="&#xa5;" d="M792 982L966 982L966 810L741 810L674 586L966 586L966 415L674 415L674 0L284 0L284 415L2 415L2 586L284 586L220 810L2 810L2 982L170 982L-12 1619L375 1619Q466 1146 477 982Q512 1241 594 1619L981 1619L792 982Z"  horiz-adv-x="969" vert-adv-y="2048"  />

      
      <glyph glyph-name="unib5" unicode="&#xb5;" d="M72 1327L396 1327L396 370Q396 229 474 229Q571 229 571 461L571 1327L892 1327L892 0L586 0L586 123Q525-19 396-21L396-407L72-407L72 1327Z"  horiz-adv-x="965" vert-adv-y="2048"  />

      
      <glyph glyph-name="uni2202" unicode="&#x2202;" d="M354 1150L312 1150Q364 1292 451 1363Q538 1434 660 1434Q760 1434 825.50 1387.50Q891 1341 922.50 1265Q954 1189 954 1034Q954 690 859 448Q764 206 650 91.50Q536-23 378-23Q223-23 142.50 69Q62 161 62 293Q62 524 250.50 729Q439 934 649 934Q817 934 885 784Q893 861 893 911Q893 1021 851 1089Q809 1157 750 1195.50Q691 1234 580 1234Q507 1234 450.50 1213Q394 1192 354 1150M869 691Q806 883 655 883Q569 883 491.50 793Q414 703 366 528.50Q318 354 318 212Q318 118 347 81Q376 44 438 44Q572 44 697 243Q822 442 869 691Z"  horiz-adv-x="1003" vert-adv-y="2048"  />

      
      <glyph glyph-name="uni2211" unicode="&#x2211;" d="M1351-83L38-83L38-47L707 784L38 1600L38 1638L1316 1638L1343 1301L1303 1301Q1276 1557 1054 1557L314 1557L876 870L247 93L1065 93Q1154 93 1245.50 132Q1337 171 1375 339L1415 331L1351-83Z"  horiz-adv-x="1451" vert-adv-y="2048"  />

      
      <glyph glyph-name="uni220F" unicode="&#x220F;" d="M1239 1558L444 1558L444 110Q444 24 483-10.50Q522-45 606-45L642-45L642-83L45-83L45-45L80-45Q173-45 208-7.50Q243 30 243 110L243 1444Q243 1529 205 1564Q167 1599 80 1599L45 1599L45 1636L1639 1636L1639 1599L1604 1599Q1518 1599 1480 1563Q1442 1527 1442 1444L1442 110Q1442 24 1481-10.50Q1520-45 1604-45L1639-45L1639-83L1042-83L1042-45L1077-45Q1170-45 1204.50-7.50Q1239 30 1239 110L1239 1558Z"  horiz-adv-x="1685" vert-adv-y="2048"  />

      
      <glyph glyph-name="uni222B" unicode="&#x222B;" d="M200 895L212 1340Q221 1684 287 1773.50Q353 1863 435 1863Q488 1863 524 1828.50Q560 1794 560 1756Q560 1712 534.50 1682Q509 1652 468 1652Q433 1652 392 1688Q369 1708 352 1708Q312 1708 312 1645Q312 1603 321 1499Q358 1088 358 834Q358 766 346 363.50Q334-39 269-129.50Q204-220 118-220Q69-220 34.50-187.50Q0-155 0-99Q0-54 26-27Q52 0 90 0Q130 0 160-33Q188-64 208-64Q228-64 237.50-48.50Q247-33 247-3Q247 39 238 117Q200 434 200 895Z"  horiz-adv-x="561" vert-adv-y="2048"  />

      
      <glyph glyph-name="uniaa" unicode="&#xaa;" d="M282 1362L36 1362Q36 1461 58 1512.50Q80 1564 149 1605Q218 1646 330 1646Q462 1646 529 1604Q596 1562 612 1498Q628 1434 628 1228L628 834L373 834L373 903Q348 859 310 837Q272 815 221 815Q129 815 82.50 864.50Q36 914 36 1013L36 1078Q36 1174 69.50 1207.50Q103 1241 252 1294Q357 1332 361.50 1349.50Q366 1367 366 1393Q366 1458 356.50 1475Q347 1492 321 1492Q294 1492 288 1478.50Q282 1465 282 1400L282 1362M366 1209Q310 1168 296.50 1147.50Q283 1127 283 1062Q283 1009 291 993Q299 977 326 977Q352 977 359 990Q366 1003 366 1059L366 1209Z"  horiz-adv-x="665" vert-adv-y="2048"  />

      
      <glyph glyph-name="uniba" unicode="&#xba;" d="M638 1345L638 1157Q638 1032 616 966Q594 900 524 857.50Q454 815 336 815Q211 815 148.50 850.50Q86 886 61 949Q36 1012 36 1131L36 1328Q36 1512 116.50 1579Q197 1646 328 1646Q442 1646 513 1606Q584 1566 611 1506.50Q638 1447 638 1345M375 1405Q375 1465 369 1478.50Q363 1492 337 1492Q312 1492 305.50 1478Q299 1464 299 1405L299 1052Q299 997 306 982.50Q313 968 334 968Q362 968 368.50 981.50Q375 995 375 1044L375 1405Z"  horiz-adv-x="675" vert-adv-y="2048"  />

      
      <glyph glyph-name="uni2126" unicode="&#x2126;" d="M617 359L651 0L32 0L32 377L68 377Q72 308 101.50 276Q131 244 227 244L555 244L548 313Q297 366 189.50 510Q82 654 82 825Q82 1056 267 1221.50Q452 1387 786 1387Q1120 1387 1305 1221.50Q1490 1056 1490 825Q1490 654 1382.50 510Q1275 366 1024 313L1017 244L1345 244Q1410 244 1436.50 254Q1463 264 1482 292Q1501 320 1504 377L1540 377L1540 0L921 0L955 359Q1138 422 1138 800Q1138 1087 1031 1198Q924 1309 786 1309Q677 1309 594.50 1246Q512 1183 473 1083.50Q434 984 434 813Q434 421 617 359Z"  horiz-adv-x="1573" vert-adv-y="2048"  />

      
      <glyph glyph-name="unie6" unicode="&#xe6;" d="M1482 640L955 640L955 372Q955 270 968 240.50Q981 211 1023 211Q1068 211 1084 241Q1100 271 1100 365L1100 554L1482 554L1482 420Q1482 289 1442.50 199Q1403 109 1299 42.50Q1195-24 1044-24Q904-24 806 14Q708 52 651 128Q596 52 521 14Q446-24 352-24Q242-24 170.50 21Q99 66 76.50 135Q54 204 54 361Q54 501 74.50 552.50Q95 604 159 644.50Q223 685 380 740Q463 768 492 787Q521 806 532 834.50Q543 863 543 957Q543 1046 531 1081Q519 1116 486 1116Q454 1116 444.50 1087Q435 1058 435 940L435 813L56 813L56 912Q56 1022 71.50 1085Q87 1148 142.50 1211.50Q198 1275 283.50 1313Q369 1351 502 1351Q576 1351 645 1333Q714 1315 777 1279Q823 1315 884 1333Q945 1351 1021 1351Q1173 1351 1282.50 1285Q1392 1219 1437 1116Q1482 1013 1482 811L1482 640M1078 856L1078 976Q1078 1069 1061 1092.50Q1044 1116 1017 1116Q984 1116 969.50 1089Q955 1062 955 976L955 856L1078 856M551 623Q474 567 447.50 521.50Q421 476 421 352Q421 275 436.50 243Q452 211 493 211Q522 211 536 231Q550 251 550 290L551 409L551 623Z"  horiz-adv-x="1543" vert-adv-y="2048"  />

      
      <glyph glyph-name="unif8" unicode="&#xf8;" d="M912 1181Q951 1128 968.50 1065.50Q986 1003 986 861L986 536Q986 357 968 273.50Q950 190 891 117.50Q832 45 740 10.50Q648-24 527-24Q413-24 329-2.50Q245 19 192 61L161 14L82 65L127 134Q93 190 76.50 260Q60 330 60 492L60 832Q60 1017 100 1121Q140 1225 244 1288Q348 1351 510 1351Q615 1351 699 1326Q783 1301 845 1251L886 1313L964 1262L912 1181M582 835L582 961Q582 1063 571 1089.50Q560 1116 524 1116Q488 1116 476 1089.50Q464 1063 464 961L464 655L582 835M464 481L464 362Q464 268 476 239.50Q488 211 523 211Q559 211 570.50 237Q582 263 582 349L582 662L464 481Z"  horiz-adv-x="1047" vert-adv-y="2048"  />

      
      <glyph glyph-name="unibf" unicode="&#xbf;" d="M586 1100L586 1424L963 1424L963 1100L586 1100M586 327L990 327Q988 114 954 15.50Q920-83 806.50-156Q693-229 517-229Q390-229 295-189Q200-149 144-77.50Q88-6 62 77Q36 160 36 336L36 534Q36 670 61 751.50Q86 833 170 895Q254 957 367 957Q520 957 586 843L586 1016L963 1016L963 571L595 571Q594 664 529 664Q479 664 465.50 623.50Q452 583 452 425L452 155Q452 67 464.50 36.50Q477 6 514 6Q560 6 573 46Q586 86 586 229L586 327Z"  horiz-adv-x="1075" vert-adv-y="2048"  />

      
      <glyph glyph-name="unia1" unicode="&#xa1;" d="M69 1100L69 1424L447 1424L447 1100L69 1100M36-195L102 1024L414 1024L480-195L36-195Z"  horiz-adv-x="553" vert-adv-y="2048"  />

      
      <glyph glyph-name="uniac" unicode="&#xac;" d="M64 1126L1028 1126L1028 492L784 492L784 881L64 881L64 1126Z"  horiz-adv-x="1092" vert-adv-y="2048"  />

      
      <glyph glyph-name="uni221A" unicode="&#x221A;" d="M1050 1869L1124 1869L812-78L316 943L118 852L84 916L385 1067L790 244L1050 1869Z"  horiz-adv-x="1124" vert-adv-y="2048"  />

      
      <glyph glyph-name="uni0192" unicode="&#x0192;" d="M908 1650L866 1438Q809 1438 796 1433.50Q783 1429 776 1389Q774 1382 767 1347L699 1004L847 1004L799 761L652 761L519 88Q481-103 409.50-166Q338-229 133-229L-48-229L-5-16Q56-16 65.50-7.50Q75 1 88 67L227 761L88 761L133 1004L277 1004L337 1316Q372 1499 412.50 1550Q453 1601 506 1625.50Q559 1650 694 1650L908 1650Z"  horiz-adv-x="908" vert-adv-y="2048"  />

      
      <glyph glyph-name="uni2248" unicode="&#x2248;" d="M1018 982Q863 851 740 851Q687 851 638.50 865Q590 879 478 934Q382 980 335 980Q278 980 221 947.50Q164 915 57 816L57 1094Q201 1224 347 1224Q432 1224 578 1153Q696 1096 747 1096Q845 1096 1018 1258L1018 982M1018 596L1004 585Q857 465 740 465Q687 465 638.50 479Q590 493 478 547Q382 594 335 594Q287 594 226.50 565Q166 536 57 430L57 708Q201 837 347 837Q432 837 578 767Q696 710 747 710Q845 710 1018 872L1018 596Z"  horiz-adv-x="1075" vert-adv-y="2048"  />

      
      <glyph glyph-name="uni2206" unicode="&#x2206;" d="M1229 0L29 0L657 1387L1229 0M993 82L594 1049L154 82L993 82Z"  horiz-adv-x="1259" vert-adv-y="2048"  />

      
      <glyph glyph-name="uniab" unicode="&#xab;" d="M120 1238L357 1238L273 695L357 124L120 124L36 695L120 1238M487 1238L724 1238L639 695L724 124L487 124L402 695L487 1238Z"  horiz-adv-x="760" vert-adv-y="2048"  />

      
      <glyph glyph-name="unibb" unicode="&#xbb;" d="M639 1238L724 695L639 124L402 124L487 695L402 1238L639 1238M273 1238L357 695L273 124L36 124L120 695L36 1238L273 1238Z"  horiz-adv-x="760" vert-adv-y="2048"  />

      
      <glyph glyph-name="uni2026" unicode="&#x2026;" d="M341 330L341 0L36 0L36 330L341 330M1097 330L1097 0L792 0L792 330L1097 330M719 330L719 0L414 0L414 330L719 330Z"  horiz-adv-x="1133" vert-adv-y="2048"  />

      
      <glyph glyph-name="unic0" unicode="&#xc0;" d="M811 1619L1052 0L621 0L600 291L449 291L424 0L-12 0L202 1619L811 1619M588 578Q556 853 524 1257Q460 793 444 578L588 578M152 1941L508 1941L684 1670L481 1670L152 1941Z"  horiz-adv-x="1040" vert-adv-y="2048"  />

      
      <glyph glyph-name="unic3" unicode="&#xc3;" d="M811 1619L1052 0L621 0L600 291L449 291L424 0L-12 0L202 1619L811 1619M588 578Q556 853 524 1257Q460 793 444 578L588 578M929 1860Q883 1759 816 1719Q749 1679 698 1679Q627 1679 545 1712L471 1741Q400 1770 365 1770Q291 1770 243 1670L85 1775Q195 1969 333 1969Q405 1969 490 1937L552 1914Q630 1885 658 1885Q741 1885 768 1975L929 1860Z"  horiz-adv-x="1040" vert-adv-y="2048"  />

      
      <glyph glyph-name="unid5" unicode="&#xd5;" d="M1046 671Q1046 427 1034.50 325.50Q1023 224 962.50 140Q902 56 799 11Q696-34 559-34Q429-34 325.50 8.50Q222 51 159 136Q96 221 84 321Q72 421 72 671L72 948Q72 1192 83.50 1293.50Q95 1395 155.50 1479Q216 1563 319 1608Q422 1653 559 1653Q689 1653 792.50 1610.50Q896 1568 959 1483Q1022 1398 1034 1298Q1046 1198 1046 948L1046 671M625 1203Q625 1316 612.50 1347.50Q600 1379 561 1379Q528 1379 510.50 1353.50Q493 1328 493 1203L493 447Q493 306 504.50 273Q516 240 558 240Q601 240 613 278Q625 316 625 459L625 1203M981 1860Q935 1759 868 1719Q801 1679 750 1679Q679 1679 597 1712L523 1741Q452 1770 417 1770Q343 1770 295 1670L137 1775Q247 1969 385 1969Q457 1969 542 1937L604 1914Q682 1885 710 1885Q793 1885 820 1975L981 1860Z"  horiz-adv-x="1119" vert-adv-y="2048"  />

      
      <glyph glyph-name="uni0152" unicode="&#x0152;" d="M1339 1619L1339 1295L1055 1295L1055 988L1326 988L1326 680L1055 680L1055 324L1373 324L1373 0L740 0Q603-17 551-17Q423-17 316 28.50Q209 74 157 143Q105 212 88.50 287.50Q72 363 72 528L72 1057Q72 1237 86 1321Q100 1405 158 1477.50Q216 1550 315 1593Q414 1636 558 1636Q641 1636 743 1619L1339 1619M634 1110Q634 1160 633 1184Q631 1228 631 1245Q631 1362 561 1362Q520 1362 507 1335.50Q494 1309 494 1243L493 1170L493 521Q493 333 503.50 295Q514 257 560 257Q606 257 620 300Q634 343 634 502L634 1110Z"  horiz-adv-x="1410" vert-adv-y="2048"  />

      
      <glyph glyph-name="uni0153" unicode="&#x0153;" d="M1506 640L986 640L986 343Q986 261 998.50 236Q1011 211 1047 211Q1090 211 1107 253Q1124 295 1124 390L1124 554L1506 554L1506 423Q1506 288 1464 198Q1422 108 1313 42Q1204-24 1055-24Q976-24 908-8.50Q840 7 782 38Q727 7 663-8.50Q599-24 525-24Q389-24 291 19Q193 62 140.50 127.50Q88 193 74 262Q60 331 60 495L60 785Q60 999 87.50 1094.50Q115 1190 226.50 1270.50Q338 1351 509 1351Q585 1351 653.50 1331Q722 1311 782 1271Q834 1311 899.50 1331Q965 1351 1043 1351Q1184 1351 1307 1283.50Q1430 1216 1468 1108Q1506 1000 1506 831L1506 640M582 925Q582 1054 571 1085Q560 1116 521 1116Q487 1116 475.50 1087Q464 1058 464 965L464 387Q464 262 473 236.50Q482 211 521 211Q558 211 570 239.50Q582 268 582 373L582 925M1102 855L1102 997Q1102 1082 1083.50 1099Q1065 1116 1043 1116Q1010 1116 998 1093.50Q986 1071 986 997L986 855L1102 855Z"  horiz-adv-x="1567" vert-adv-y="2048"  />

      
      <glyph glyph-name="uni2013" unicode="&#x2013;" d="M-12 788L1036 788L1036 539L-12 539L-12 788Z"  horiz-adv-x="1024" vert-adv-y="2048"  />

      
      <glyph glyph-name="uni2014" unicode="&#x2014;" d="M-12 788L2060 788L2060 539L-12 539L-12 788Z"  horiz-adv-x="2048" vert-adv-y="2048"  />

      
      <glyph glyph-name="uni201C" unicode="&#x201C;" d="M398 1095L398 1240Q398 1354 425.50 1427Q453 1500 519 1551Q585 1602 669 1619L669 1503Q610 1469 602 1412L669 1412L669 1095L398 1095M36 1095L36 1240Q36 1354 63.50 1427Q91 1500 157.50 1551Q224 1602 307 1619L307 1503Q248 1469 240 1412L307 1412L307 1095L36 1095Z"  horiz-adv-x="706" vert-adv-y="2048"  />

      
      <glyph glyph-name="uni201D" unicode="&#x201D;" d="M669 1619L669 1474Q669 1361 642 1287.50Q615 1214 548.50 1163.50Q482 1113 398 1095L398 1212Q457 1245 465 1302L398 1302L398 1619L669 1619M307 1619L307 1474Q307 1361 280 1287.50Q253 1214 186.50 1163.50Q120 1113 36 1095L36 1212Q96 1245 104 1302L36 1302L36 1619L307 1619Z"  horiz-adv-x="706" vert-adv-y="2048"  />

      
      <glyph glyph-name="uni2018" unicode="&#x2018;" d="M36 1095L36 1240Q36 1354 63.50 1427Q91 1500 157.50 1551Q224 1602 307 1619L307 1503Q248 1469 240 1412L307 1412L307 1095L36 1095Z"  horiz-adv-x="344" vert-adv-y="2048"  />

      
      <glyph glyph-name="uni2019" unicode="&#x2019;" d="M307 1619L307 1474Q307 1361 280 1287.50Q253 1214 186.50 1163.50Q120 1113 36 1095L36 1212Q96 1245 104 1302L36 1302L36 1619L307 1619Z"  horiz-adv-x="344" vert-adv-y="2048"  />

      
      <glyph glyph-name="unif7" unicode="&#xf7;" d="M404 1144Q404 1203 445.50 1243Q487 1283 543 1283Q600 1283 641 1242Q682 1201 682 1145Q682 1088 641 1047Q600 1006 543 1006Q484 1006 444 1048Q404 1090 404 1144M64 927L1028 927L1028 691L64 691L64 927M404 476Q404 539 446 579Q488 619 544 619Q601 619 642.50 578.50Q684 538 684 479Q684 422 643 381Q602 340 544 340Q485 340 444.50 382Q404 424 404 476Z"  horiz-adv-x="1092" vert-adv-y="2048"  />

      
      <glyph glyph-name="uni25CA" unicode="&#x25CA;" d="M548 1422L966 709L548 0L437 0L46 709L437 1422L548 1422M494 1325L154 709L494 94L853 709L494 1325Z"  horiz-adv-x="1012" vert-adv-y="2048"  />

      
      <glyph glyph-name="uniff" unicode="&#xff;" d="M918 1327L802 367Q775 139 756.50 56Q738-27 695-81Q652-135 575.50-160.50Q499-186 331-186L86-186L86 26Q180 26 207 35.50Q234 45 234 78Q234 94 209 217L-12 1327L355 1327L487 432L551 1327L918 1327M385 1676L385 1416L124 1416L124 1676L385 1676M822 1676L822 1416L561 1416L561 1676L822 1676Z"  horiz-adv-x="918" vert-adv-y="2048"  />

      
      <glyph glyph-name="uni0178" unicode="&#x0178;" d="M981 1619L674 586L674 0L284 0L284 586L-12 1619L375 1619Q466 1146 477 982Q512 1241 594 1619L981 1619M397 1930L397 1670L136 1670L136 1930L397 1930M834 1930L834 1670L573 1670L573 1930L834 1930Z"  horiz-adv-x="969" vert-adv-y="2048"  />

      
      <glyph glyph-name="uni2215" unicode="&#x2215;" d="M521 1650L-111-31L-265-31L370 1650L521 1650Z"  horiz-adv-x="256" vert-adv-y="2048"  />

      
      <glyph glyph-name="uni20AC" unicode="&#x20AC;" d="M457 1036L571 1036L571 864L457 864L457 784L571 784L571 612L457 612L457 430Q457 345 463 314Q469 283 493 261.50Q517 240 553 240Q583 240 608.50 257.50Q634 275 640.50 308.50Q647 342 647 444L647 598L1020 598L1020 535Q1020 310 978 202.50Q936 95 823 30Q710-35 549-35Q420-35 317 10.50Q214 56 159 132Q104 208 88 298Q72 388 72 569L72 612L-25 612L-25 784L72 784L72 864L-25 864L-25 1036L72 1036L72 1065Q72 1221 85.50 1313Q99 1405 160 1484Q221 1563 325.50 1608Q430 1653 561 1653Q691 1653 796.50 1606Q902 1559 961 1454.50Q1020 1350 1020 1116L1020 1063L647 1063L647 1194Q644 1297 640 1323.50Q636 1350 618.50 1364Q601 1378 563 1378Q519 1378 493 1357.50Q467 1337 462 1303.50Q457 1270 457 1182L457 1036Z"  horiz-adv-x="1087" vert-adv-y="2048"  />

      
      <glyph glyph-name="uni2039" unicode="&#x2039;" d="M123 1257L368 1257L281 696L368 104L123 104L36 696L123 1257Z"  horiz-adv-x="405" vert-adv-y="2048"  />

      
      <glyph glyph-name="uni203A" unicode="&#x203A;" d="M281 1257L368 696L281 104L36 104L123 696L36 1257L281 1257Z"  horiz-adv-x="405" vert-adv-y="2048"  />

      
      <glyph glyph-name="uniFB01" unicode="&#xFB01;" d="M1075 1619L1075 1408L659 1408L659 1619L1075 1619M587 1619L587 1414Q462 1414 439.50 1402.50Q417 1391 417 1337L417 1295L587 1295L587 1085L491 1085L491 0L87 0L87 1085L4 1085L4 1295L87 1295Q87 1426 96 1470Q105 1514 140.50 1548.50Q176 1583 240 1601Q304 1619 439 1619L587 1619M1075 1327L1075 0L659 0L659 1327L1075 1327Z"  horiz-adv-x="1148" vert-adv-y="2048"  />

      
      <glyph glyph-name="uniFB02" unicode="&#xFB02;" d="M587 1619L587 1414Q462 1414 439.50 1402.50Q417 1391 417 1337L417 1295L587 1295L587 1085L491 1085L491 0L87 0L87 1085L4 1085L4 1295L87 1295Q87 1426 96 1470Q105 1514 140.50 1548.50Q176 1583 240 1601Q304 1619 439 1619L587 1619M1072 1619L1072 0L656 0L656 1619L1072 1619Z"  horiz-adv-x="1145" vert-adv-y="2048"  />

      
      <glyph glyph-name="uni2021" unicode="&#x2021;" d="M334 1619L778 1619L778 1244L1076 1244L1076 864L778 864L778 566L1076 566L1076 185L778 185L778-189L334-189L334 185L36 185L36 566L334 566L334 864L36 864L36 1244L334 1244L334 1619Z"  horiz-adv-x="1113" vert-adv-y="2048"  />

      
      <glyph glyph-name="uni2219" unicode="&#x2219;" d="M377 972L377 642L72 642L72 972L377 972Z"  horiz-adv-x="450" vert-adv-y="2048"  />

      
      <glyph glyph-name="uni201A" unicode="&#x201A;" d="M307 317L307 172Q307 58 280-15Q253-88 186.50-139Q120-190 36-207L36-91Q96-57 104 0L36 0L36 317L307 317Z"  horiz-adv-x="344" vert-adv-y="2048"  />

      
      <glyph glyph-name="uni201E" unicode="&#x201E;" d="M669 317L669 172Q669 58 642-15Q615-88 548.50-139Q482-190 398-207L398-91Q457-57 465 0L398 0L398 317L669 317M307 317L307 172Q307 58 280-15Q253-88 186.50-139Q120-190 36-207L36-91Q96-57 104 0L36 0L36 317L307 317Z"  horiz-adv-x="706" vert-adv-y="2048"  />

      
      <glyph glyph-name="uni2030" unicode="&#x2030;" d="M1103 1650L470-31L316-31L951 1650L1103 1650M632 1343L632 1065Q632 956 611.50 901.50Q591 847 523.50 806.50Q456 766 345 766Q217 766 150 804.50Q83 843 59.50 897Q36 951 36 1052L36 1343Q36 1463 60.50 1520.50Q85 1578 155 1614Q225 1650 328 1650Q442 1650 513 1610.50Q584 1571 608 1515Q632 1459 632 1343M376 1414Q376 1478 369.50 1493Q363 1508 334 1508Q307 1508 299 1492Q291 1476 291 1414L291 1006Q291 936 298 922Q305 908 335 908Q361 908 368.50 924Q376 940 376 999L376 1414M1383 561L1383 282Q1383 174 1362.50 119Q1342 64 1274.50 23.50Q1207-17 1096-17Q969-17 901.50 22Q834 61 810.50 115Q787 169 787 269L787 561Q787 680 811.50 737.50Q836 795 906 831.50Q976 868 1079 868Q1194 868 1265 828Q1336 788 1359.50 732Q1383 676 1383 561M1127 631Q1127 695 1120.50 710.50Q1114 726 1085 726Q1058 726 1050.50 710Q1043 694 1043 631L1043 223Q1043 154 1050 140Q1057 126 1086 126Q1113 126 1120 141.50Q1127 157 1127 217L1127 631M2063 561L2063 282Q2063 174 2042.50 119Q2022 64 1954.50 23.50Q1887-17 1776-17Q1649-17 1581.50 22Q1514 61 1490.50 115Q1467 169 1467 269L1467 561Q1467 680 1491.50 737.50Q1516 795 1586 831.50Q1656 868 1759 868Q1874 868 1944.50 828Q2015 788 2039 732Q2063 676 2063 561M1807 631Q1807 695 1800.50 710.50Q1794 726 1765 726Q1738 726 1730.50 710Q1723 694 1723 631L1723 223Q1723 154 1730 140Q1737 126 1766 126Q1792 126 1799.50 141.50Q1807 157 1807 217L1807 631Z"  horiz-adv-x="2099" vert-adv-y="2048"  />

      
      <glyph glyph-name="unic2" unicode="&#xc2;" d="M811 1619L1052 0L621 0L600 291L449 291L424 0L-12 0L202 1619L811 1619M588 578Q556 853 524 1257Q460 793 444 578L588 578M510 1801L392 1670L112 1670L369 1952L651 1952L892 1670L621 1670L510 1801Z"  horiz-adv-x="1040" vert-adv-y="2048"  />

      
      <glyph glyph-name="unica" unicode="&#xca;" d="M84 1619L786 1619L786 1295L505 1295L505 988L768 988L768 680L505 680L505 324L814 324L814 0L84 0L84 1619M433 1801L315 1670L35 1670L292 1952L574 1952L815 1670L544 1670L433 1801Z"  horiz-adv-x="851" vert-adv-y="2048"  />

      
      <glyph glyph-name="unic1" unicode="&#xc1;" d="M811 1619L1052 0L621 0L600 291L449 291L424 0L-12 0L202 1619L811 1619M588 578Q556 853 524 1257Q460 793 444 578L588 578M862 1941L533 1670L330 1670L506 1941L862 1941Z"  horiz-adv-x="1040" vert-adv-y="2048"  />

      
      <glyph glyph-name="unicb" unicode="&#xcb;" d="M84 1619L786 1619L786 1295L505 1295L505 988L768 988L768 680L505 680L505 324L814 324L814 0L84 0L84 1619M337 1930L337 1670L76 1670L76 1930L337 1930M774 1930L774 1670L513 1670L513 1930L774 1930Z"  horiz-adv-x="851" vert-adv-y="2048"  />

      
      <glyph glyph-name="unic8" unicode="&#xc8;" d="M84 1619L786 1619L786 1295L505 1295L505 988L768 988L768 680L505 680L505 324L814 324L814 0L84 0L84 1619M84 1941L440 1941L616 1670L413 1670L84 1941Z"  horiz-adv-x="851" vert-adv-y="2048"  />

      
      <glyph glyph-name="unicd" unicode="&#xcd;" d="M505 1619L505 0L84 0L84 1619L505 1619M636 1941L307 1670L104 1670L280 1941L636 1941Z"  horiz-adv-x="590" vert-adv-y="2048"  />

      
      <glyph glyph-name="unice" unicode="&#xce;" d="M505 1619L505 0L84 0L84 1619L505 1619M303 1801L185 1670L-95 1670L162 1952L444 1952L685 1670L414 1670L303 1801Z"  horiz-adv-x="590" vert-adv-y="2048"  />

      
      <glyph glyph-name="unicf" unicode="&#xcf;" d="M505 1619L505 0L84 0L84 1619L505 1619M207 1930L207 1670L-54 1670L-54 1930L207 1930M644 1930L644 1670L383 1670L383 1930L644 1930Z"  horiz-adv-x="590" vert-adv-y="2048"  />

      
      <glyph glyph-name="unicc" unicode="&#xcc;" d="M505 1619L505 0L84 0L84 1619L505 1619M-47 1941L309 1941L485 1670L282 1670L-47 1941Z"  horiz-adv-x="590" vert-adv-y="2048"  />

      
      <glyph glyph-name="unid3" unicode="&#xd3;" d="M1046 671Q1046 427 1034.50 325.50Q1023 224 962.50 140Q902 56 799 11Q696-34 559-34Q429-34 325.50 8.50Q222 51 159 136Q96 221 84 321Q72 421 72 671L72 948Q72 1192 83.50 1293.50Q95 1395 155.50 1479Q216 1563 319 1608Q422 1653 559 1653Q689 1653 792.50 1610.50Q896 1568 959 1483Q1022 1398 1034 1298Q1046 1198 1046 948L1046 671M625 1203Q625 1316 612.50 1347.50Q600 1379 561 1379Q528 1379 510.50 1353.50Q493 1328 493 1203L493 447Q493 306 504.50 273Q516 240 558 240Q601 240 613 278Q625 316 625 459L625 1203M900 1941L571 1670L368 1670L544 1941L900 1941Z"  horiz-adv-x="1119" vert-adv-y="2048"  />

      
      <glyph glyph-name="unid4" unicode="&#xd4;" d="M1046 671Q1046 427 1034.50 325.50Q1023 224 962.50 140Q902 56 799 11Q696-34 559-34Q429-34 325.50 8.50Q222 51 159 136Q96 221 84 321Q72 421 72 671L72 948Q72 1192 83.50 1293.50Q95 1395 155.50 1479Q216 1563 319 1608Q422 1653 559 1653Q689 1653 792.50 1610.50Q896 1568 959 1483Q1022 1398 1034 1298Q1046 1198 1046 948L1046 671M625 1203Q625 1316 612.50 1347.50Q600 1379 561 1379Q528 1379 510.50 1353.50Q493 1328 493 1203L493 447Q493 306 504.50 273Q516 240 558 240Q601 240 613 278Q625 316 625 459L625 1203M567 1801L449 1670L169 1670L426 1952L708 1952L949 1670L678 1670L567 1801Z"  horiz-adv-x="1119" vert-adv-y="2048"  />

      
      <glyph glyph-name="unid2" unicode="&#xd2;" d="M1046 671Q1046 427 1034.50 325.50Q1023 224 962.50 140Q902 56 799 11Q696-34 559-34Q429-34 325.50 8.50Q222 51 159 136Q96 221 84 321Q72 421 72 671L72 948Q72 1192 83.50 1293.50Q95 1395 155.50 1479Q216 1563 319 1608Q422 1653 559 1653Q689 1653 792.50 1610.50Q896 1568 959 1483Q1022 1398 1034 1298Q1046 1198 1046 948L1046 671M625 1203Q625 1316 612.50 1347.50Q600 1379 561 1379Q528 1379 510.50 1353.50Q493 1328 493 1203L493 447Q493 306 504.50 273Q516 240 558 240Q601 240 613 278Q625 316 625 459L625 1203M218 1941L574 1941L750 1670L547 1670L218 1941Z"  horiz-adv-x="1119" vert-adv-y="2048"  />

      
      <glyph glyph-name="unida" unicode="&#xda;" d="M1041 1619L1041 537Q1041 353 1029 278.50Q1017 204 958 125.50Q899 47 802.50 6.50Q706-34 575-34Q430-34 319 14Q208 62 153 139Q98 216 88 301.50Q78 387 78 661L78 1619L499 1619L499 405Q499 299 510.50 269.50Q522 240 557 240Q597 240 608.50 272.50Q620 305 620 426L620 1619L1041 1619M901 1941L572 1670L369 1670L545 1941L901 1941Z"  horiz-adv-x="1120" vert-adv-y="2048"  />

      
      <glyph glyph-name="unidb" unicode="&#xdb;" d="M1041 1619L1041 537Q1041 353 1029 278.50Q1017 204 958 125.50Q899 47 802.50 6.50Q706-34 575-34Q430-34 319 14Q208 62 153 139Q98 216 88 301.50Q78 387 78 661L78 1619L499 1619L499 405Q499 299 510.50 269.50Q522 240 557 240Q597 240 608.50 272.50Q620 305 620 426L620 1619L1041 1619M568 1801L450 1670L170 1670L427 1952L709 1952L950 1670L679 1670L568 1801Z"  horiz-adv-x="1120" vert-adv-y="2048"  />

      
      <glyph glyph-name="unid9" unicode="&#xd9;" d="M1041 1619L1041 537Q1041 353 1029 278.50Q1017 204 958 125.50Q899 47 802.50 6.50Q706-34 575-34Q430-34 319 14Q208 62 153 139Q98 216 88 301.50Q78 387 78 661L78 1619L499 1619L499 405Q499 299 510.50 269.50Q522 240 557 240Q597 240 608.50 272.50Q620 305 620 426L620 1619L1041 1619M218 1941L574 1941L750 1670L547 1670L218 1941Z"  horiz-adv-x="1120" vert-adv-y="2048"  />

      
      <glyph glyph-name="uni0131" unicode="&#x0131;" d="M488 1327L488 0L72 0L72 1327L488 1327Z"  horiz-adv-x="561" vert-adv-y="2048"  />

      
      <glyph glyph-name="uni02C6" unicode="&#x02C6;" d="M350 1632L232 1501L-48 1501L209 1783L491 1783L732 1501L461 1501L350 1632Z"  horiz-adv-x="683" vert-adv-y="2048"  />

      
      <glyph glyph-name="uni02DC" unicode="&#x02DC;" d="M763 1691Q717 1590 650 1550Q583 1510 532 1510Q461 1510 379 1543L305 1572Q234 1601 199 1601Q125 1601 77 1501L-81 1606Q29 1800 167 1800Q239 1800 324 1768L386 1745Q464 1716 492 1716Q575 1716 602 1806L763 1691Z"  horiz-adv-x="683" vert-adv-y="2048"  />

      
      <glyph glyph-name="uni02C9" unicode="&#x02C9;" d="M739 1674L739 1501L-57 1501L-57 1674L739 1674Z"  horiz-adv-x="683" vert-adv-y="2048"  />

      
      <glyph glyph-name="uni02D8" unicode="&#x02D8;" d="M455 1803L625 1803Q619 1667 545.50 1584Q472 1501 341 1501Q209 1501 136.50 1584.50Q64 1668 58 1803L228 1803Q240 1666 341 1666Q443 1666 455 1803Z"  horiz-adv-x="683" vert-adv-y="2048"  />

      
      <glyph glyph-name="uni02D9" unicode="&#x02D9;" d="M472 1761L472 1501L211 1501L211 1761L472 1761Z"  horiz-adv-x="683" vert-adv-y="2048"  />

      
      <glyph glyph-name="uni02DA" unicode="&#x02DA;" d="M342 1922Q426 1922 489 1861.50Q552 1801 552 1711Q552 1624 490 1562.50Q428 1501 342 1501Q254 1501 192.50 1562.50Q131 1624 131 1711Q131 1798 193 1860Q255 1922 342 1922M340 1790Q307 1790 282.50 1766Q258 1742 258 1707Q258 1673 282.50 1649Q307 1625 340 1625Q374 1625 398.50 1649Q423 1673 423 1707Q423 1742 398.50 1766Q374 1790 340 1790Z"  horiz-adv-x="683" vert-adv-y="2048"  />

      
      <glyph glyph-name="unib8" unicode="&#xb8;" d="M378 12L378-112Q430-112 476-147Q522-182 522-244Q522-320 460-376Q398-432 312-432Q156-432 113-274L261-274Q275-315 311-315Q341-315 355.50-300Q370-285 370-255Q370-222 349.50-205.50Q329-189 287-189Q278-189 261-190L261 12L378 12Z"  horiz-adv-x="683" vert-adv-y="2048"  />

      
      <glyph glyph-name="uni02DD" unicode="&#x02DD;" d="M414 1811L173 1501L24 1501L142 1811L414 1811M803 1811L563 1501L414 1501L532 1811L803 1811Z"  horiz-adv-x="683" vert-adv-y="2048"  />

      
      <glyph glyph-name="uni02DB" unicode="&#x02DB;" d="M262 21L408 21Q302-81 302-134Q302-166 320-182.50Q338-199 374-199Q424-199 488-173L529-273Q445-316 355-316Q269-316 212.50-275Q156-234 156-161Q156-72 262 21Z"  horiz-adv-x="683" vert-adv-y="2048"  />

      
      <glyph glyph-name="uni02C7" unicode="&#x02C7;" d="M350 1652L461 1783L732 1783L491 1501L209 1501L-48 1783L232 1783L350 1652Z"  horiz-adv-x="683" vert-adv-y="2048"  />

      
      <glyph glyph-name="uni0141" unicode="&#x0141;" d="M517 1011L761 1066L761 894L517 839L517 324L773 324L773 0L96 0L96 744L14 725L14 897L96 916L96 1619L517 1619L517 1011Z"  horiz-adv-x="785" vert-adv-y="2048"  />

      
      <glyph glyph-name="uni0142" unicode="&#x0142;" d="M500 1045L570 1066L570 894L500 873L500 0L84 0L84 747L14 725L14 897L84 918L84 1619L500 1619L500 1045Z"  horiz-adv-x="585" vert-adv-y="2048"  />

      
      <glyph glyph-name="uni0160" unicode="&#x0160;" d="M976 1129L585 1129L585 1249Q585 1333 570 1356Q555 1379 520 1379Q482 1379 462.50 1348Q443 1317 443 1254Q443 1173 465 1132Q486 1091 584 1033Q865 866 938 759Q1011 652 1011 414Q1011 241 970.50 159Q930 77 814 21.50Q698-34 544-34Q375-34 255.50 30Q136 94 99 193Q62 292 62 474L62 580L453 580L453 383Q453 292 469.50 266Q486 240 528 240Q570 240 590.50 273Q611 306 611 371Q611 514 572 558Q532 602 375 705Q218 809 167 856Q116 903 82.50 986Q49 1069 49 1198Q49 1384 96.50 1470Q144 1556 250 1604.50Q356 1653 506 1653Q670 1653 785.50 1600Q901 1547 938.50 1466.50Q976 1386 976 1193L976 1129M537 1821L648 1952L919 1952L678 1670L396 1670L139 1952L419 1952L537 1821Z"  horiz-adv-x="1059" vert-adv-y="2048"  />

      
      <glyph glyph-name="uni0161" unicode="&#x0161;" d="M897 903L539 903L539 975Q539 1067 528.50 1091.50Q518 1116 476 1116Q442 1116 425 1093.50Q408 1071 408 1026Q408 965 416.50 936.50Q425 908 467.50 874Q510 840 642 775Q818 689 873 613Q928 537 928 392Q928 230 886 147.50Q844 65 745.50 20.50Q647-24 508-24Q354-24 244.50 24Q135 72 94 154Q53 236 53 402L53 466L411 466L411 382Q411 275 424.50 243Q438 211 478 211Q521 211 538 232.50Q555 254 555 323Q555 418 533 442Q510 466 298 584Q120 684 81 765.50Q42 847 42 959Q42 1118 84 1193.50Q126 1269 226.50 1310Q327 1351 460 1351Q592 1351 684.50 1317.50Q777 1284 826.50 1229Q876 1174 886.50 1127Q897 1080 897 980L897 903M490 1567L601 1698L872 1698L631 1416L349 1416L92 1698L372 1698L490 1567Z"  horiz-adv-x="964" vert-adv-y="2048"  />

      
      <glyph glyph-name="uni017D" unicode="&#x017D;" d="M788 1619L788 1295L474 324L788 324L788 0L12 0L12 235L336 1295L50 1295L50 1619L788 1619M414 1821L525 1952L796 1952L555 1670L273 1670L16 1952L296 1952L414 1821Z"  horiz-adv-x="813" vert-adv-y="2048"  />

      
      <glyph glyph-name="uni017E" unicode="&#x017E;" d="M701 1327L701 1033L403 266L701 266L701 0L12 0L12 278L317 1061L43 1061L43 1327L701 1327M349 1567L460 1698L731 1698L490 1416L208 1416L-49 1698L231 1698L349 1567Z"  horiz-adv-x="719" vert-adv-y="2048"  />

      
      <glyph glyph-name="unia6" unicode="&#xa6;" d="M169 1619L386 1619L386 804L169 804L169 1619M169 550L386 550L386-265L169-265L169 550Z"  horiz-adv-x="555" vert-adv-y="2048"  />

      
      <glyph glyph-name="unid0" unicode="&#xd0;" d="M96 810L14 810L14 982L96 982L96 1619L411 1619Q716 1619 823.50 1591Q931 1563 987 1499Q1043 1435 1057 1356.50Q1071 1278 1071 1048L1071 481Q1071 263 1050.50 189.50Q1030 116 979 74.50Q928 33 853 16.50Q778 0 627 0L96 0L96 810M517 810L517 277Q608 277 629 313.50Q650 350 650 512L650 1141Q650 1251 643 1282Q636 1313 611.50 1327.50Q587 1342 517 1342L517 982L583 982L583 810L517 810Z"  horiz-adv-x="1144" vert-adv-y="2048"  />

      
      <glyph glyph-name="uni0110" unicode="&#x0110;" d="M96 810L14 810L14 982L96 982L96 1619L411 1619Q716 1619 823.50 1591Q931 1563 987 1499Q1043 1435 1057 1356.50Q1071 1278 1071 1048L1071 481Q1071 263 1050.50 189.50Q1030 116 979 74.50Q928 33 853 16.50Q778 0 627 0L96 0L96 810M517 810L517 277Q608 277 629 313.50Q650 350 650 512L650 1141Q650 1251 643 1282Q636 1313 611.50 1327.50Q587 1342 517 1342L517 982L583 982L583 810L517 810Z"  horiz-adv-x="1144" vert-adv-y="2048"  />

      
      <glyph glyph-name="unif0" unicode="&#xf0;" d="M370 1619L615 1619Q642 1600 666 1579L827 1619L857 1530L743 1498Q811 1419 872 1308Q933 1197 960 1083.50Q987 970 987 775L987 473Q987 306 943.50 201Q900 96 791 36Q682-24 516-24Q349-24 242.50 32.50Q136 89 98 185.50Q60 282 60 494L60 786Q60 961 94.50 1056Q129 1151 216.50 1221Q304 1291 415 1291Q513 1291 583 1235Q564 1342 509 1437L317 1385L287 1476L454 1522Q404 1589 370 1619M583 907Q583 1006 571.50 1031Q560 1056 524 1056Q490 1056 477 1026Q464 996 464 920L464 351Q464 268 478.50 239.50Q493 211 525 211Q556 211 569.50 238.50Q583 266 583 362L583 907Z"  horiz-adv-x="1047" vert-adv-y="2048"  />

      
      <glyph glyph-name="unidd" unicode="&#xdd;" d="M981 1619L674 586L674 0L284 0L284 586L-12 1619L375 1619Q466 1146 477 982Q512 1241 594 1619L981 1619M826 1941L497 1670L294 1670L470 1941L826 1941Z"  horiz-adv-x="969" vert-adv-y="2048"  />

      
      <glyph glyph-name="unifd" unicode="&#xfd;" d="M918 1327L802 367Q775 139 756.50 56Q738-27 695-81Q652-135 575.50-160.50Q499-186 331-186L86-186L86 26Q180 26 207 35.50Q234 45 234 78Q234 94 209 217L-12 1327L355 1327L487 432L551 1327L918 1327M814 1687L485 1416L282 1416L458 1687L814 1687Z"  horiz-adv-x="918" vert-adv-y="2048"  />

      
      <glyph glyph-name="unide" unicode="&#xde;" d="M505 1317Q681 1317 768.50 1292Q856 1267 908.50 1212.50Q961 1158 976 1089.50Q991 1021 991 864L991 724Q991 580 963 507Q935 434 851.50 392Q768 350 618 350L505 350L505 0L84 0L84 1619L505 1619L505 1317M505 1040L505 628L536 628Q594 628 616.50 656.50Q639 685 639 775L639 907Q639 988 613 1014Q587 1040 505 1040Z"  horiz-adv-x="1028" vert-adv-y="2048"  />

      
      <glyph glyph-name="unife" unicode="&#xfe;" d="M476 1619L476 1210Q583 1351 737 1351Q831 1351 899.50 1300.50Q968 1250 985 1184Q1002 1118 1002 960L1002 401Q1002 220 980.50 143.50Q959 67 892.50 21.50Q826-24 732-24Q582-24 476 115L476-189L72-189L72 1619L476 1619M598 941Q598 1064 589 1090Q580 1116 539 1116Q499 1116 487.50 1086Q476 1056 476 941L476 391Q476 271 488 241Q500 211 540 211Q579 211 588.50 238.50Q598 266 598 372L598 941Z"  horiz-adv-x="1063" vert-adv-y="2048"  />

      
      <glyph glyph-name="uni2212" unicode="&#x2212;" d="M64 931L1028 931L1028 687L64 687L64 931Z"  horiz-adv-x="1092" vert-adv-y="2048"  />

      
      <glyph glyph-name="unid7" unicode="&#xd7;" d="M74 1122L246 1294L546 995L845 1294L1018 1122L719 822L1016 526L844 353L547 650L249 354L77 526L374 822L74 1122Z"  horiz-adv-x="1092" vert-adv-y="2048"  />

      
      <glyph glyph-name="unib9" unicode="&#xb9;" d="M440 1636L440 783L185 783L185 1240Q185 1338 180 1355Q175 1372 150 1381.50Q125 1391 40 1391L12 1391L12 1501Q195 1534 290 1636L440 1636Z"  horiz-adv-x="501" vert-adv-y="2048"  />

      
      <glyph glyph-name="unib2" unicode="&#xb2;" d="M592 938L592 783L36 783L36 911Q286 1255 329.50 1330Q373 1405 373 1448Q373 1508 320 1508Q291 1508 278 1491.50Q265 1475 265 1422L265 1336L36 1336L36 1373Q36 1461 55 1515.50Q74 1570 138 1610Q202 1650 309 1650Q459 1650 536.50 1587Q614 1524 614 1425Q614 1350 571.50 1271.50Q529 1193 394 1026L325 938L592 938Z"  horiz-adv-x="651" vert-adv-y="2048"  />

      
      <glyph glyph-name="unib3" unicode="&#xb3;" d="M532 1263Q577 1249 604.50 1210Q632 1171 632 1041Q632 871 549.50 818.50Q467 766 336 766Q215 766 146.50 801Q78 836 57 887Q36 938 36 1057L36 1113L291 1113L291 986Q291 933 298 920.50Q305 908 331 908Q360 908 368.50 925Q377 942 377 1019L377 1073Q377 1140 350 1157Q323 1174 226 1175L226 1309Q334 1309 355.50 1322Q377 1335 377 1394L377 1442Q377 1486 366 1497Q355 1508 334 1508Q309 1508 300 1496Q291 1484 291 1436L291 1377L36 1377L36 1439Q36 1564 101.50 1607Q167 1650 313 1650Q490 1650 556 1591Q622 1532 622 1421Q622 1374 606 1331.50Q590 1289 532 1263Z"  horiz-adv-x="668" vert-adv-y="2048"  />

      
      <glyph glyph-name="unibd" unicode="&#xbd;" d="M1001 1650L368-31L214-31L849 1650L1001 1650M440 1636L440 783L185 783L185 1240Q185 1338 180 1355Q175 1372 150 1381.50Q125 1391 40 1391L12 1391L12 1501Q195 1534 290 1636L440 1636M1262 155L1262 0L706 0L706 128Q956 472 999.50 547Q1043 622 1043 666Q1043 726 989 726Q961 726 948 709.50Q935 693 935 639L935 554L706 554L706 590Q706 678 725 733Q744 788 808 828Q872 868 979 868Q1129 868 1206.50 804.50Q1284 741 1284 642Q1284 569 1240.50 488.50Q1197 408 1064 243L995 155L1262 155Z"  horiz-adv-x="1321" vert-adv-y="2048"  />

      
      <glyph glyph-name="unibc" unicode="&#xbc;" d="M1001 1650L368-31L214-31L849 1650L1001 1650M440 1636L440 783L185 783L185 1240Q185 1338 180 1355Q175 1372 150 1381.50Q125 1391 40 1391L12 1391L12 1501Q195 1534 290 1636L440 1636M1182 854L1182 304L1253 304L1253 148L1182 148L1182 0L926 0L926 148L629 148L629 299L847 854L1182 854M926 304L926 639L800 304L926 304Z"  horiz-adv-x="1277" vert-adv-y="2048"  />

      
      <glyph glyph-name="unibe" unicode="&#xbe;" d="M532 1263Q577 1249 604.50 1210Q632 1171 632 1041Q632 871 549.50 818.50Q467 766 336 766Q215 766 146.50 801Q78 836 57 887Q36 938 36 1057L36 1113L291 1113L291 986Q291 933 298 920.50Q305 908 331 908Q360 908 368.50 925Q377 942 377 1019L377 1073Q377 1140 350 1157Q323 1174 226 1175L226 1309Q334 1309 355.50 1322Q377 1335 377 1394L377 1442Q377 1486 366 1497Q355 1508 334 1508Q309 1508 300 1496Q291 1484 291 1436L291 1377L36 1377L36 1439Q36 1564 101.50 1607Q167 1650 313 1650Q490 1650 556 1591Q622 1532 622 1421Q622 1374 606 1331.50Q590 1289 532 1263M1139 1650L507-31L353-31L987 1650L1139 1650M1320 854L1320 304L1391 304L1391 148L1320 148L1320 0L1065 0L1065 148L767 148L767 299L985 854L1320 854M1065 304L1065 639L938 304L1065 304Z"  horiz-adv-x="1416" vert-adv-y="2048"  />

      
      <glyph glyph-name="uni011E" unicode="&#x011E;" d="M1050 1023L629 1023L629 1170Q629 1309 617 1344Q605 1379 560 1379Q521 1379 507 1349Q493 1319 493 1195L493 418Q493 309 507 274.50Q521 240 563 240Q609 240 625.50 279Q642 318 642 431L642 623L557 623L557 869L1050 869L1050 0L785 0L746 116Q703 41 637.50 3.50Q572-34 483-34Q377-34 284.50 17.50Q192 69 144 145Q96 221 84 304.50Q72 388 72 555L72 1036Q72 1268 97 1373Q122 1478 240.50 1565.50Q359 1653 547 1653Q732 1653 854 1577Q976 1501 1013 1396.50Q1050 1292 1050 1093L1050 1023M678 1972L848 1972Q842 1836 768.50 1753Q695 1670 564 1670Q432 1670 359.50 1753.50Q287 1837 281 1972L451 1972Q463 1835 564 1835Q666 1835 678 1972Z"  horiz-adv-x="1129" vert-adv-y="2048"  />

      
      <glyph glyph-name="uni011F" unicode="&#x011F;" d="M990 1327L990 305Q990 98 980.50 37.50Q971-23 913-90.50Q855-158 751.50-193.50Q648-229 491-229Q298-229 181-163.50Q64-98 60 94L452 94Q452 6 516 6Q562 6 577 33Q592 60 592 146L592 246Q540 199 482.50 175Q425 151 362 151Q253 151 182.50 195Q112 239 86 310.50Q60 382 60 514L60 996Q60 1185 128 1268Q196 1351 335 1351Q411 1351 473.50 1320Q536 1289 585 1227L614 1327L990 1327M585 975Q585 1066 574.50 1091Q564 1116 528 1116Q493 1116 478.50 1087.50Q464 1059 464 975L464 529Q464 440 475 413.50Q486 387 521 387Q561 387 573 419Q585 451 585 564L585 975M644 1718L814 1718Q808 1582 734.50 1499Q661 1416 530 1416Q398 1416 325.50 1499.50Q253 1583 247 1718L417 1718Q429 1581 530 1581Q632 1581 644 1718Z"  horiz-adv-x="1062" vert-adv-y="2048"  />

      
      <glyph glyph-name="uni0130" unicode="&#x0130;" d="M505 1619L505 0L84 0L84 1619L505 1619M425 1930L425 1670L164 1670L164 1930L425 1930Z"  horiz-adv-x="590" vert-adv-y="2048"  />

      
      </font>
</defs>
</svg>
